<svg xmlns="http://www.w3.org/2000/svg" width="239" height="53.892" viewBox="0 0 239 53.892">
  <defs>
    <style>
      .cls-1 {
        fill: #fff;
      }
    </style>
  </defs>
  <g id="Group_36" data-name="Group 36" transform="translate(-313 -5218)">
    <g id="Group_34" data-name="Group 34" transform="translate(313 5218)">
      <path id="Path_1" data-name="Path 1" class="cls-1" d="M190.033,86.364c-.018-.037.055-.146.055-.22l.055-.549c-.146.128-.165.183-.146.439a.165.165,0,0,1-.092-.018c0,.11.055.238-.073.311.037.128,0,.275.11.384-.018.037-.055.092-.037.11a.388.388,0,0,1-.11.476c-.055.055-.055.11.018.165.018.018.055.055.055.073-.11.2.091.165.165.238.018.092.018.22.092.275a.841.841,0,0,1,.2.4c.091.2.037.293-.2.293-.037.11-.11.2.037.293.037.018.055.073.073.128.128.183.146.421.293.6.018.018.018.073.018.11a.371.371,0,0,0,.11.293.754.754,0,0,1,.128.2h.055c.018-.055.018-.092.037-.165.146.146.275.293.238.458s.055.293.073.439c.018.055.073.128.128.128.183.018.2.165.293.275.165.2.238.476.513.567a.246.246,0,0,1,.128.11,3.053,3.053,0,0,1,.293.439,4.555,4.555,0,0,0,1.117,1.318.528.528,0,0,0,.366.128.621.621,0,0,1,.567.238c-.073.037-.128.055-.22.092a2.79,2.79,0,0,0,.275.238c.256.146.494.293.75.439l.549.275c.293.128.586.256.86.4l1.373.659c.567.256,1.117.513,1.684.75a2.442,2.442,0,0,1,.824.677.965.965,0,0,1-.22.055c-.11.018-.183.037-.22.165a.272.272,0,0,0,.146.311.907.907,0,0,0,.238.073c.055.018.128.037.128.073a.384.384,0,0,0,.238.238,1,1,0,0,1,.165.128c0,.018-.018.037-.018.055-.2-.037-.384-.073-.586-.11-.018,0-.037.018-.055.018.165.165-.055.256-.037.384a.455.455,0,0,0,.165-.018c0,.073-.018.146-.018.183-.165.092-.311.165-.476.256.165.128-.055.2-.018.311.055.037.128.055.238.11l-.22.22c.11.092.2.183.366.311h-.421c.055.128.11.256.165.366a1.494,1.494,0,0,1-.458-.183c-.073-.037-.165-.073-.22,0,.146.146.311.275.439.4-.055.146-.128.2-.256.183a.33.33,0,0,0-.183.037.524.524,0,0,1-.622.073.357.357,0,0,0-.146-.018,3.7,3.7,0,0,1-.476-.073,14.573,14.573,0,0,1-2.325-.641.543.543,0,0,0-.293-.037.606.606,0,0,1-.476-.055c-.11-.073-.348-.073-.293-.311l-.037-.037c-.183-.11-.348-.238-.531-.329a.455.455,0,0,0-.165-.018c-.055,0-.11-.018-.165-.018.037-.256-.183-.256-.311-.33-.018-.018-.037,0-.073,0a.189.189,0,0,0,.018.073,1.942,1.942,0,0,1-.348-.073.193.193,0,0,1-.128-.11.275.275,0,0,0-.22-.2,3.831,3.831,0,0,1-.421-.146.172.172,0,0,0-.165.018c-.11.092-.2.037-.293-.037a6.882,6.882,0,0,1-.567-.458,7.631,7.631,0,0,0-.677-.659c-.256-.183-.4-.476-.714-.586-.128-.22-.384-.329-.494-.586a5.289,5.289,0,0,0-.494-.677l.055-.11a.494.494,0,0,1-.275-.494c.037-.11,0-.146-.073-.2-.055.128-.037.293-.238.329a3.183,3.183,0,0,0-.2-.329c-.055-.092-.146-.146-.092-.275.018-.018-.073-.092-.128-.128.146-.2.146-.2.037-.4-.037-.092-.092-.165-.146-.275.073.037.128.092.2.092.165.018.238.092.238.238a.22.22,0,0,0,.165.22c.037-.092.073-.165.11-.238-.165-.183-.329-.348-.275-.622a.165.165,0,0,0-.018-.092c-.037-.11-.073-.22-.11-.348h0c-.018-.11-.037-.2-.055-.311h-.055c-.018.073-.055.146-.073.22h0c-.146-.128-.018-.238,0-.348.055-.018.11-.018.165-.037a3.5,3.5,0,0,0-.073-.384c-.073.146-.073.275-.183.275-.146-.2-.275-.384-.4-.567a.46.46,0,0,1-.073-.128,1.558,1.558,0,0,1-.073-.4c0-.165.146-.238.311-.275-.055-.092-.128-.146-.11-.256.018-.073-.073-.165-.11-.256a.984.984,0,0,1-.165-.22c-.11-.22-.238-.439-.329-.677a.455.455,0,0,1,0-.311.826.826,0,0,0,.128-.458c0-.037,0-.092.037-.11a.5.5,0,0,0,.073-.421,1.037,1.037,0,0,1,.11-.659c.055-.092.092-.183.146-.275-.092-.055-.2-.092-.293-.146,0-.018-.018-.037-.018-.055a.65.65,0,0,1,.183-.037c0-.018-.018-.037-.018-.055-.055,0-.128-.018-.2-.018.018-.11.037-.2.055-.311a.667.667,0,0,0-.018-.531c-.018-.018.018-.073.018-.092.11.018.2.018.348.037a.371.371,0,0,1-.128-.4.734.734,0,0,0-.055-.586c-.037-.092-.11-.183-.073-.293a1.7,1.7,0,0,1,.238.073c-.055-.256-.2-.476-.092-.714a.272.272,0,0,1,.128.018c.055-.183.092-.348.146-.531a1.087,1.087,0,0,1,.146-.073c-.037-.146-.037-.146.11-.439-.165-.22-.238-.384.256-.494,0-.128-.018-.275-.018-.4-.2-.037-.293.037-.329.2.037.055.055.11.11.183a.7.7,0,0,1-.513-.165v-.055a.892.892,0,0,0,.2-.073c-.018,0-.018-.018-.037-.018.11-.183.22-.384.348-.586-.11-.073-.238.018-.384.037-.037-.073-.128-.146-.11-.22.037-.256-.055-.494.055-.75a2.411,2.411,0,0,0,.092-.421h-.2c-.055-.165-.11-.311-.165-.458-.037-.128,0-.22.128-.238a1.208,1.208,0,0,1,.256.018.535.535,0,0,1,.165.037c.018-.128.018-.256.037-.4-.092.055-.146.092-.256.146.073-.128.11-.2.165-.293A.387.387,0,0,0,188,79.7a.434.434,0,0,1,.421-.384.116.116,0,0,0,.128-.128c-.183-.11-.183-.11-.238-.329.2-.073.293-.037.384.128.018.055.073.092.128.146.055-.2.2-.256.311-.348a.633.633,0,0,0,.275-.513c.11-.055.2-.146.348-.128a.159.159,0,0,0,.128-.092c.055-.165.2-.22.366-.256s.165-.055.146-.22c0-.073-.018-.146-.018-.238h-.2c-.018-.293.293-.384.384-.586a1.23,1.23,0,0,0-.2-.128.185.185,0,0,1,.165-.018.524.524,0,0,0,.439-.073c.165-.073.2-.2.128-.384a2.219,2.219,0,0,1-.092-.256c.073-.11.146-.183.2-.256-.146-.11-.165-.183-.091-.238.037-.037.11-.073.146-.055.055.018.092.073.128.11.128-.183-.165-.2-.128-.311.183-.055.348-.11.513-.165.055-.146.11-.256.165-.384a1.154,1.154,0,0,0,.165.073.338.338,0,0,0,.458-.146.7.7,0,0,0,.055-.183.453.453,0,0,1,.073-.165c.037-.037.11-.092.146-.073a.958.958,0,0,1,.22.128c.092-.073.22-.146.293-.22a.411.411,0,0,1,.366-.165q.055.082.165.22a1.462,1.462,0,0,1,.238-.4l.311-.311c.275.073.33.384.622.384-.018-.146-.11-.256.018-.4.22.018.22.366.494.329.037-.055.073-.146.128-.238.018.092.037.146.055.238a2.949,2.949,0,0,0,1.08-.329.486.486,0,0,1,.11.092,3.192,3.192,0,0,1,.22-.256c.055.055.073.11.092.11a1.638,1.638,0,0,0,.421-.037,4.783,4.783,0,0,1,.494-.11c.165-.018.311-.018.476-.037a.787.787,0,0,0,.513-.2c.092.037.183.128.22-.037,0-.018.073-.037.092-.018.11.146.238.037.366.018a.588.588,0,0,1,.256.018c.037.018.055.092.073.11a1.377,1.377,0,0,1,.275,0,1.172,1.172,0,0,0,1.117-.183.287.287,0,0,0,.329.183h.055c.092.146.22.073.348.092a.455.455,0,0,1,.165.018c.092.073.165.037.256,0s.2-.092.329-.146c0,.11.018.183.018.256.092.092.2.146.238.238a.4.4,0,0,0,.238.22,1.12,1.12,0,0,1,.22.092.875.875,0,0,0,.567.092,3.525,3.525,0,0,1,.439-.018q.027,0,.055.055a.9.9,0,0,1-.073.2,1.017,1.017,0,0,1,.146.11c-.018.11-.183.11-.128.256a.319.319,0,0,1,.458.037.841.841,0,0,0,.513.146.506.506,0,0,1,.165.018,3.114,3.114,0,0,1,1.153.641,2,2,0,0,0,.311.238.312.312,0,0,0,.128.018c.037,0,.11,0,.128.018.092.11.293.128.275.33a.039.039,0,0,0,.037.037c.146,0,.165.146.256.2.165.11.293.275.531.275.037,0,.092.073.128.128.055.092.11.165.22.146a.137.137,0,0,1,.092.018c.22.183.421.366.659.549-.018.073-.055.128-.073.2.238.384.659.622.842,1.062l.11-.11h0a.326.326,0,0,1,.055.4c.165-.055.22.037.293.128a1.823,1.823,0,0,0,.256.275,4.585,4.585,0,0,1,.4.439c.037.037.018.128.018.2h.018c-.073-.128-.146-.073-.238,0,.055.128.11.238.146.348-.018,0-.018.018-.037.018a1.183,1.183,0,0,0-.165-.146c0,.092.092.165.073.2-.11.183.055.293.11.439a.091.091,0,0,1,.055.018c.018-.055.037-.11.073-.238.055.165.092.256.128.366-.073-.018-.11-.018-.22-.037a3.634,3.634,0,0,0,.293.714l.055.275c.037-.11.055-.22-.073-.275a.382.382,0,0,1,.073-.11c.128.055.146.165.183.256.073.2,0,.458.2.622.018.018,0,.073,0,.11,0,.055-.018.11,0,.146a.289.289,0,0,0,.091.146c.092.018.11-.055.11-.146,0-.018.018-.037.037-.055a.138.138,0,0,1,.018.22.494.494,0,0,0-.128.384c0,.018.018.018.037.037a1.158,1.158,0,0,0,.165-.073,2.493,2.493,0,0,1,.073.311.547.547,0,0,0-.128.549c.073-.018.128-.018.2-.037-.183.311-.183.311.018.458a.34.34,0,0,0-.037.128,2.328,2.328,0,0,0-.037.494.893.893,0,0,1,.018.311,2.127,2.127,0,0,1-.073.329,1.926,1.926,0,0,1,.2.146c-.11.183-.22.348-.329.513.037.092.055.146.092.22-.018.018-.037.018-.055.037a1.09,1.09,0,0,0-.146.824.115.115,0,0,1,0,.11c-.146.146-.092.329-.092.513v.513h0a.159.159,0,0,0-.165.073c-.11.293-.22.567-.329.86.146.018.055-.256.256-.146-.018.037-.018.073-.037.092-.238.366-.513.714-.714,1.1l-.018.018c-.293.329-.586.659-.879.97a2.913,2.913,0,0,1-.531.531c-.22.146-.311.4-.513.549a4.842,4.842,0,0,0-.531.531.658.658,0,0,0-.128.183.584.584,0,0,1-.4.348.2.2,0,0,1-.256-.055.174.174,0,0,1,.055-.238c.165-.183.329-.348.494-.531a1.831,1.831,0,0,0,.366-.458,4.509,4.509,0,0,1,.4-.622,9,9,0,0,0,.842-1.611c.091-.256.183-.513.275-.751a4.7,4.7,0,0,0,.293-1.135.143.143,0,0,1,.128-.165V88.4a.718.718,0,0,0,.146-.256c.037-.073.055-.2.11-.238.128-.073-.055-.183.092-.256a1.054,1.054,0,0,1,.183.037c-.037-.11-.238-.092-.165-.293.037.037.055.092.091.092s.128,0,.128-.018a.558.558,0,0,0,0-.421l-.329.33c-.018-.018-.037-.018-.037-.037.055-.11.11-.2.165-.311a2.812,2.812,0,0,0-.22-.238c-.091.128-.037.256-.055.384s.092.256-.018.366c-.091.092.055.256-.128.348a2,2,0,0,1-.146-1.08c-.11-.037-.183-.055-.293-.092.073-.128.091-.256.165-.329a.2.2,0,0,0,.018-.293c-.073-.092-.055-.128,0-.2a.353.353,0,0,0-.037-.4.67.67,0,0,1-.275.329.384.384,0,0,0-.073.11.711.711,0,0,0,.128.586,2.808,2.808,0,0,0-.091.311c-.018.11-.055.2-.165.22a.235.235,0,0,1-.256-.092c-.018-.037-.055-.055-.073-.092-.092.018-.146.018-.238.037.037-.2.073-.366.11-.549-.037-.018-.073-.018-.11-.037.018-.128.018-.256.037-.366a1.39,1.39,0,0,0,.2-.073,2.151,2.151,0,0,1-.2-.092c.055-.073.092-.183.128-.2.183,0,.128-.128.11-.22h.165c-.018-.073-.018-.128-.037-.183.146-.238.329-.11.494-.037.073-.494.055-.567-.073-.7,0,.018-.018.055-.018.073,0,.11-.128.22.018.311-.037.018-.055.055-.11.092-.055-.165-.11-.275-.037-.421.037-.073-.018-.128-.11-.11H210.1c0-.128-.018-.22-.018-.348-.238.128-.092.348-.2.494-.055-.018-.128-.055-.183-.073a1.293,1.293,0,0,0,.146-.622.369.369,0,0,1,.055-.2.88.88,0,0,0,.146-.293c.055-.183.055-.22-.128-.22-.092,0-.2,0-.238-.128.238-.183.238-.183.092-.384.092-.165.055-.293-.146-.6a1.414,1.414,0,0,1-.275.037c-.055,0-.128.018-.165,0-.055-.018-.073-.092-.092-.146,0,0,.073-.073.11-.073.091-.018.2.018.22-.092.037-.11-.073-.165-.146-.238-.018-.018-.037,0-.037-.018-.128.183-.183.165-.329.037a9.953,9.953,0,0,0-.769-.75c-.037-.018-.055-.073-.073-.128-.018-.11-.037-.238-.055-.329.055-.037.092-.055.146-.092-.2-.165-.384-.293-.567-.439a1.7,1.7,0,0,1-.183.092,1.366,1.366,0,0,1-.128-.22c-.018-.037-.091-.092-.073-.11.055-.128-.073-.165-.128-.238-.092-.092-.165-.2-.256-.293-.165-.165-.329-.348-.513-.513a.221.221,0,0,0-.183-.055.807.807,0,0,1-.586-.092c-.2-.073-.384-.165-.586-.256-.22-.128-.439-.256-.677-.4-.11-.055-.2-.128-.311-.183-.037-.018-.092-.037-.183-.073a1.783,1.783,0,0,1,.293-.018c-.073-.183-.183-.146-.293-.11a.817.817,0,0,1-.769-.073.22.22,0,0,0-.275,0,.253.253,0,0,1-.293.055c-.311-.073-.6-.165-.915-.238a1.116,1.116,0,0,1-.11-.073c.073-.018.146-.037.2-.055-.348-.11-.7-.22-1.025-.311-.2-.055-.421-.073-.622-.11h-.055c-.146.018-.293.018-.439.037-.055,0-.092.037-.165.073.165.128.384.037.494.183a.21.21,0,0,1-.238.183h-.513c-.018,0-.037-.018-.055-.037a.8.8,0,0,0,.073-.128h-.146a.333.333,0,0,0-.348.128,1.063,1.063,0,0,1-.641.311c-.092.018-.165.018-.22-.055.055-.073.146-.128.146-.183.037-.183.165-.238.311-.293a.254.254,0,0,0,.146-.128,1.716,1.716,0,0,0,.11-.275.494.494,0,0,0-.4.183.4.4,0,0,1-.329.146.97.97,0,0,0-.494.146.424.424,0,0,0-.275.256c-.073.2-.2.256-.421.238a.232.232,0,0,0-.11.018,4.336,4.336,0,0,0-.622.238c-.165.073-.384.018-.531.183-.183-.073-.275.073-.384.165a.5.5,0,0,1-.311.146c.055-.11.092-.2.165-.329-.092.018-.146,0-.183.018-.311.2-.641.384-.952.586a.13.13,0,0,0-.055.11.3.3,0,0,1-.2.275c-.092.037-.2.073-.165.238.018.092-.092.183-.146.128-.128-.073-.2.018-.275.073a1.943,1.943,0,0,0-.366.311.492.492,0,0,0-.146.329c.037.146-.037.183-.11.256-.275-.165-.329.183-.549.22.018-.092.037-.165.073-.293-.128.11-.2.183-.293.256a1.332,1.332,0,0,0,.165.146,1.008,1.008,0,0,0-.366.787c.073.092.2.146.128.311-.037.055-.055.11-.092.165-.037-.055-.073-.092-.091-.128-.165.11-.311.22-.458.311-.037.018-.055.073-.073.128-.128.256-.238.531-.348.805a1.18,1.18,0,0,0-.055.366c0,.128.018.238.018.4a.257.257,0,0,1,.073.073.13.13,0,0,1-.092.2c-.22.055-.238.092-.238.275,0,.293.037.6.037.9,0,.165.165.238.128.439a.528.528,0,0,0,.238-.384c.073-.22.092-.439.329-.567.018-.018.037-.055.055-.073.018-.073.055-.128.128-.11.092.018.073.11.073.183a.226.226,0,0,1-.073.146,1.186,1.186,0,0,1-.146.165.4.4,0,0,0-.092-.055c-.183.146.037.22.055.329-.091.073-.165.165-.073.275a.79.79,0,0,1-.165.11,3.4,3.4,0,0,1,.018.4,4.395,4.395,0,0,1-.22.7.266.266,0,0,1-.275.183C190,86.584,190.143,86.529,190.033,86.364Zm-.714,9.134c-.018.2.128.275.238.384.037.037.091.055.128.11.11.183.238.348.329.531a.435.435,0,0,0,.311.22l-.238-.238c.073-.055.128-.11.2-.165-.092-.055-.183-.092-.256-.128a.753.753,0,0,0,.055-.146c-.183-.256-.384-.494-.6-.769.018-.146-.055-.275-.293-.293-.018.037-.055.073-.073.11-.128.146-.11.2.055.293.037.018.092.037.128.055C189.3,95.48,189.3,95.5,189.319,95.5Zm21.087-12.832a1.047,1.047,0,0,1-.128.073c.073.2.146.384.22.567.018,0,.055-.018.073-.018C210.516,83.069,210.461,82.886,210.406,82.666Zm-.384,3.716c-.146-.037-.146.092-.183.165-.037.092-.128.2.055.329C209.949,86.693,209.985,86.547,210.022,86.382ZM191.845,97.859c-.11,0-.2-.183-.311-.037.311.22.311.22.494.2C191.937,97.951,191.9,97.859,191.845,97.859Zm-3.313-18.177a.13.13,0,0,0,.055-.11c0-.037-.037-.092-.073-.092a.131.131,0,0,0-.11.055c-.037.037-.055.092-.128.183A2.067,2.067,0,0,0,188.532,79.683Zm.128-.311c.018.11.018.2.037.329.055-.128.11-.238.183-.384A1.245,1.245,0,0,0,188.66,79.371Zm10.178-2.8c-.256-.128-.275-.11-.311.128C198.655,76.644,198.728,76.607,198.838,76.571Zm12.191,2.746c-.018,0-.037.018-.055.018,0,.146.128.22.183.329a.064.064,0,0,0,.037-.018C211.138,79.555,211.084,79.426,211.029,79.317ZM199.808,99.269c-.018-.11-.055-.22-.22-.165Zm-7.45-.952c.11.037.183.073.256.092h.018V98.39C192.577,98.3,192.522,98.225,192.358,98.317Zm7.377,1.19v.055c.073,0,.146.073.238-.073A.9.9,0,0,0,199.735,99.507Zm-8.823-8.713c.018,0,.037-.018.055-.018-.018-.073-.055-.146-.073-.22-.018.018-.055.018-.073.037A.982.982,0,0,1,190.912,90.794Zm15.34-15.523c0,.018-.018.018-.018.037.018.018.037.055.073.055a.2.2,0,0,0,.091-.018v-.055C206.343,75.289,206.306,75.271,206.251,75.271Zm-5.876,23.247v-.055c-.055,0-.11-.018-.165-.018v.037A.535.535,0,0,0,200.375,98.518Zm1.83-25.3c.037.037.073.055.146.128C202.389,73.184,202.352,73.166,202.206,73.221Zm8.731,5.766c-.092.11-.037.146.073.165A.453.453,0,0,1,210.937,78.987ZM187.69,87.041h-.055a.508.508,0,0,0-.018.165h.073Zm10.855-10.269.018.037a.339.339,0,0,0,.128-.037c0-.018-.018-.055-.018-.073A.459.459,0,0,1,198.545,76.772ZM188.257,82.74a.064.064,0,0,0,.037-.018.265.265,0,0,1-.037-.128c-.018.018-.037.018-.055.037Zm8.914-9.207c.018,0,.037-.037.037-.037a.252.252,0,0,0-.073-.055l-.055.055C197.135,73.514,197.154,73.532,197.172,73.532Zm8.127,1.153c-.018-.018-.037-.037-.055-.037a.064.064,0,0,1-.037.018c.018.018.018.037.037.055C205.281,74.7,205.3,74.7,205.3,74.685ZM191.882,79.7a.018.018,0,0,0,.018.018l.11-.055c-.018-.018-.018-.037-.037-.055A.216.216,0,0,1,191.882,79.7ZM187.6,87.462c-.018,0-.018-.018-.037-.018a.4.4,0,0,1-.055.092c.018,0,.018.018.037.018A.4.4,0,0,0,187.6,87.462ZM210.7,83.6h.037c0-.037-.018-.055-.018-.092h-.037A.2.2,0,0,0,210.7,83.6Z" transform="translate(-174.973 -59.472)"/>
      <path id="Path_2" data-name="Path 2" class="cls-1" d="M251.369,141.211c-.055-.037-.091-.073-.146-.11l-.11.439a.565.565,0,0,0,.037.146c0,.073.037.165,0,.22a.253.253,0,0,0,.055.256c-.037.092-.055.183-.091.275-.128,0-.183.092-.238.2-.055.092-.146.165-.2.256a2.371,2.371,0,0,1-1.153.842,2,2,0,0,1-.476.11.268.268,0,0,1-.2-.037,1.972,1.972,0,0,0-.439-.22c-.037-.018-.092-.037-.11-.073-.037-.055-.055-.146-.146-.073,0,0-.037,0-.037-.018-.073-.165-.256-.2-.384-.311a1.579,1.579,0,0,1-.238-.256.139.139,0,0,0-.073-.037c-.2-.091-.275-.2-.238-.4a.345.345,0,0,0-.11-.348.336.336,0,0,1-.073-.421c.128-.2.018-.348-.018-.531.073-.11.128.055.2.018a.112.112,0,0,0-.018-.183.279.279,0,0,1-.092-.311c.055.11.11.2.165.311a.35.35,0,0,0,.275-.073c0-.238.11-.458,0-.714a1.049,1.049,0,0,1,.22-.018,2.319,2.319,0,0,0,.238.2c.11.073.165.037.2-.092.037-.146.037-.146.183-.128a.677.677,0,0,0-.183-.531,1.447,1.447,0,0,0,.238.055,1.628,1.628,0,0,0,.256-.055l.238.238.22-.055a1.155,1.155,0,0,1,.073-.165.642.642,0,0,0,.146.092.658.658,0,0,0,.2.037c.165,0,.348-.018.531-.037v.128a1.473,1.473,0,0,0,.476.165,1.991,1.991,0,0,1,.458.183.231.231,0,0,1,.128.293.6.6,0,0,0,.128.421c.055.092.128.183.183.275C251.405,141.193,251.387,141.211,251.369,141.211Z" transform="translate(-223.825 -114.044)"/>
      <g id="Group_1" data-name="Group 1" transform="translate(0 0)">
        <path id="Path_4" data-name="Path 4" class="cls-1" d="M124.7,193.218c0,.018.018.018.018.037V193.2C124.737,193.2,124.7,193.218,124.7,193.218Z" transform="translate(-123.955 -157.833)"/>
        <path id="Path_5" data-name="Path 5" class="cls-1" d="M166.551,42.914a27.423,27.423,0,0,0,4.778-14.076,25.753,25.753,0,0,0-1.757-10.946,1.445,1.445,0,0,0-.33-1.135c.092-.128.183-.238.293-.384a.409.409,0,0,1,.238.476.437.437,0,0,0,.366.549,1.242,1.242,0,0,1,.33.256q-.082-.3-.165-.549c-.128-.421-.128-.421.2-.75-.073-.11-.2-.256-.183-.293.146-.22,0-.366-.073-.549-.092-.22-.165-.458-.238-.677-.384.018-.4.311-.549.531-.146-.146-.183-.238-.073-.421a.952.952,0,0,0-.311-1.007c.055-.073.092-.146.128-.183a7.1,7.1,0,0,1-.659-1.428c-.128-.513-.549-.805-.7-1.281-.531-.311-.7-.934-1.1-1.355a12.377,12.377,0,0,1-1.007-1.483c-.275-.366-.586-.714-.879-1.062-.128-.146-.275-.293-.531-.165a.337.337,0,0,1-.293-.037c-.238-.128-.476-.275-.714-.421A.547.547,0,0,1,163,6.067a.3.3,0,0,0-.183-.238,4.895,4.895,0,0,0-.622-.256v.146a.312.312,0,0,1-.128-.018c-.2-.2-.6-.293-.439-.75-.092-.037-.2-.073-.293-.11-.11-.037-.22-.037-.293-.11-.293-.256-.567-.549-.86-.824-.018-.018-.055-.055-.055-.073.183-.421-.238-.513-.421-.7a1.093,1.093,0,0,0-.86-.275,1.059,1.059,0,0,1-.513-.165A24.242,24.242,0,0,0,154.268.63c-.275-.11-.586-.2-.86-.311-.092-.037-.2-.037-.256-.092a1.024,1.024,0,0,0-1.172-.11.564.564,0,0,1-.348,0c-.238-.092-.384,0-.549.22.22.293.439.586.677.9-.146.146-.293.018-.421-.073a3.157,3.157,0,0,0-.805-.494c.055.238.11.476.183.732-.238-.037-.458-.092-.787-.146.238.311.4.513.567.714-.128.092-.293.183-.494.311.183.128.311.22.4.293.037.22-.4.275-.146.567-.33.11-.622.2-.97.311-.018.073-.055.2-.092.329.092.018.183.018.311.037,0,.256-.439.348-.2.714a.357.357,0,0,0-.128.018c-.348-.146-.677-.293-1.025-.421a.322.322,0,0,1-.073.092,3.344,3.344,0,0,0,.238.293c.165.146.348.256.348.513,0,.073.128.146.22.2.128.092.275.146.4.238a.533.533,0,0,1,.146.622c-.092.22-.256.238-.458.22a3.384,3.384,0,0,0-.421.018,4.2,4.2,0,0,0,1.263,1.556c.97.659,1.9,1.355,2.856,2.032.769.567,1.519,1.153,2.288,1.721.476.366.97.7,1.446,1.062.311.238.6.476.9.714.421.366.842.732,1.226,1.1a3.563,3.563,0,0,1,.4.549c-.183.037-.275.055-.421.073a1.177,1.177,0,0,0,.952.659.916.916,0,0,1,.641.366,8.09,8.09,0,0,1,1.574,2.856,10.047,10.047,0,0,0,.384.934.433.433,0,0,0,.2.238c.513.256.531.824.751,1.245.128.238.128.531.439.641a.347.347,0,0,1,.165.293,1.88,1.88,0,0,1-.018.842,1.016,1.016,0,0,0,.275.934c.055-.128.092-.2.128-.293.037.018.092.018.092.037.055.146.11.293.165.421a.7.7,0,0,1,.091.567.468.468,0,0,0-.018.22,9.525,9.525,0,0,1,.311,1.245c.037.092.037.2.11.256.238.22.092.366-.037.549-.439-.073-.567.055-.494.476a1.53,1.53,0,0,0,.238.824c.092.11.037.348.055.531.11.146.513.165.22.494-.018.018.037.092.073.146a.2.2,0,0,1-.037.311.729.729,0,0,0-.384.842c.018.055-.073.11-.11.183a.518.518,0,0,0-.567.256,9.724,9.724,0,0,0-.677,1.208,3.132,3.132,0,0,0-.128.751c-.037.018-.165.073-.329.146.11.238-.055.384-.256.494,0,.238.384.458-.018.641l-.146-.146c-.11.092-.238.165-.329.256a.825.825,0,0,0-.183.256c-.037.128-.11.293.055.366.146.073.22-.037.293-.165a.289.289,0,0,1,.128-.128c.476-.146.622-.549.824-.934a1.106,1.106,0,0,1,.6-.622c-.146.348.128.549.055.86-.128.549-.165,1.117-.275,1.666-.073.366-.146.384-.567.421a.251.251,0,0,0-.238.348.423.423,0,0,0,.11.165,6.644,6.644,0,0,1-.11.75,1.961,1.961,0,0,1-.256.641c-.293.458-.622.9-.952,1.355a.652.652,0,0,1-.183.2c-.311.146-.641.275-.988.421l-.128-.256a3.182,3.182,0,0,0-.238.275c-.2.256,0,.421.11.6a1.878,1.878,0,0,1-.988,1.3c.092.128.165.22.238.329-.165.092-.348.2-.622.366.11-.238.183-.366.256-.513-.4-.018-.622.622-1.08.2-.165.092-.311.146-.293.421,0,.183-.22.4-.384.549a4.128,4.128,0,0,1-.787.439c-.165.073-.329.22-.549.037-.11-.092-.348.037-.329.2,0,.293-.22.329-.384.366a.568.568,0,0,0-.494.421.243.243,0,0,1-.128.165c-.659.256-1.318.494-1.977.732a1.244,1.244,0,0,1-.348-.018c.165-.2.275-.348.421-.531a.775.775,0,0,0-.641.146c-.238.128-.458.366-.769.165-.311.256-.7.055-1.043.146-.4.092-.824.128-1.226.2a.451.451,0,0,1-.22-.018.629.629,0,0,0-.86.275.906.906,0,0,1-.586.384,1.849,1.849,0,0,1-.952.073.952.952,0,0,0-.659.146.992.992,0,0,1-.805.183,4.254,4.254,0,0,1,.311-.476.5.5,0,0,1,.329-.183c.311-.037.567-.092.7-.421.055-.128.22-.183.348-.293-.092-.183-.22-.183-.384-.2a2.065,2.065,0,0,0-1.318.329.657.657,0,0,1-.7.092c-.073-.018-.146-.037-.256-.073a2.394,2.394,0,0,1,.2-.22c-.037-.037-.055-.092-.092-.092-.311-.073-.622-.146-.952-.2a.388.388,0,0,0-.494.238c.146.329.586.238.842.531a1.568,1.568,0,0,1-.329.073c-.275-.018-.549-.055-.824-.092a.165.165,0,0,1-.092-.018c-.366-.146-.75-.256-1.117-.439-.6-.293-1.171-.641-1.794-.97.128-.018.238-.018.384-.037-.073-.073-.11-.165-.183-.183-.531-.275-1.062-.531-1.611-.787a.53.53,0,0,0-.567,0,.379.379,0,0,1-.494-.11,1.567,1.567,0,0,0-1.391-.439c-.2.037-.439.073-.494-.293.165.018.311.037.549.055-.146-.11-.238-.146-.311-.22-.165-.146-.329-.311-.494-.476-.366-.329-.714-.677-1.08-.988a8.6,8.6,0,0,0-.97-.7,1.549,1.549,0,0,0-1.043-.4.383.383,0,0,1-.311-.165c-.275-.366-.513-.75-.769-1.135-.128-.2-.238-.421-.366-.641-.092-.146-.293-.238-.146-.476.018-.037-.073-.165-.11-.238q-.082-.192-.165-.439a3.055,3.055,0,0,1-.366.11c-.275-.329-.567-.659-.86-1.025.11-.037.183-.055.311-.092,0-.183.018-.4.018-.641a.4.4,0,0,0-.092-.256,14.98,14.98,0,0,1-1.153-1.666c-.22-.311-.329-.329-.622-.055-.018-.018-.073-.018-.073-.037-.092-.146-.275-.293-.165-.494.092-.183.293-.11.458-.092a.413.413,0,0,0,.22-.092.6.6,0,0,0-.128-.311.56.56,0,0,0-.311-.055c-.183-.018-.366-.018-.531-.037-.238-.677-.238-.915-.018-1.19-.2-.421-.2-.421.311-.659-.018-.238-.2-.275-.384-.311-.348-.092-.348-.146-.165-.476a1.63,1.63,0,0,1,.384-.476.617.617,0,0,0,.165-.366,2.732,2.732,0,0,1,.513-1.1c-.11-.073-.2-.146-.311-.22-.256.22-.073.677-.549.842.037-.256.055-.439.092-.677a.919.919,0,0,0-.22-.037c-.2,0-.256-.11-.165-.256a.974.974,0,0,0,.092-.787c-.11.055-.165.092-.238.128.22.238-.055.4-.092.586l-.055.11c-.22-.293-.2-.439.11-1.318.275.2.549.494.915.128v-.366c.11.018.2.037.293.055,0-.183-.055-.421.275-.366.092.018.2-.183.329-.311-.128-.092-.2-.146-.348-.256.165-.018.256-.037.4-.055.055-.2.128-.421.2-.677-.055-.037-.128-.073-.183-.11.146-.329.275-.641.4-.988-.165-.018-.293-.018-.458-.037a1.687,1.687,0,0,0-.092-.183.411.411,0,0,0-.439-.275c-.2.018-.311.183-.384.366a5.108,5.108,0,0,1-.275.549,1.3,1.3,0,0,1,0,1.135.441.441,0,0,1-.183.183,1.424,1.424,0,0,0-.641.513.592.592,0,0,1,.073-.751.281.281,0,0,0,.055-.384.4.4,0,0,1,.146-.531,1.93,1.93,0,0,0,.439-.531,4.557,4.557,0,0,1-.513-.275,3.884,3.884,0,0,0,.146-2.05c-.366.073-.165.458-.366.586-.275.165-.11.458-.183.677s0,.494-.238.677c-.11-.183-.2-.348-.311-.531.128-.165.275-.329.4-.513-.018-.037-.055-.055-.073-.092-.238.146-.458.311-.732.494a1.02,1.02,0,0,1,.146-.769c.018-.037.183-.018.256,0,.055.018.073.11.128.2.2-.329-.165-.366-.2-.586a2.857,2.857,0,0,0,.311.128c.293-.055-.018-.348.256-.439.128-.037.2-.256.293-.384a1.849,1.849,0,0,1,.348-.421c-.055.22-.092.421-.146.659.22.018.256-.128.293-.256a9.9,9.9,0,0,1,.97-1.977c.256-.439.513-.879.787-1.3a15.28,15.28,0,0,1,2.178-2.673,8.529,8.529,0,0,0,.988-1.007,3.426,3.426,0,0,1,.842-.714c.366-.275.751-.531,1.117-.805.146-.11.256-.238.183-.439-.073-.22-.275-.238-.458-.22a1.059,1.059,0,0,0-.9.494,1.112,1.112,0,0,1-.293.293,8.325,8.325,0,0,1-1.172.805c-.458.2-.7.641-1.153.824a5.588,5.588,0,0,0-1.19.787c-.677.476-1.336.988-2.014,1.464-.018,0-.018.018-.037.037-.531.641-1.172,1.172-1.739,1.757a1.324,1.324,0,0,0-.092.165c.329.275.256-.275.513-.2-.311.494-.622.988-.915,1.464-.092.146-.2.11-.311.092-.055.311-.128.641-.2.952s-.055.677-.366.9a.284.284,0,0,0-.037.22,1.878,1.878,0,0,1-.567,1.464c-.018.037-.073.037-.11.073a4.4,4.4,0,0,0,.073.439c-.256.256-.531.531-.805.824.092.11.2.22.311.348-.073.2-.165.384-.238.586a1.47,1.47,0,0,0-.073.567,3.38,3.38,0,0,1-.238.915.946.946,0,0,1-.11.238c.329.366.329.366-.146.86.128,0,.238.018.366.018a1.024,1.024,0,0,1-.439.952c.018.183.018.366.037.586.146-.037.238-.055.348-.073.018.037.055.073.037.092a.806.806,0,0,1-.384.641.239.239,0,0,0-.055.4c.037-.037.092-.055.092-.092.037-.146.11-.293.275-.22.073.037.11.2.128.311a.42.42,0,0,1-.073.256c-.018.073-.073.183-.037.22.311.384.092.824.146,1.245a.664.664,0,0,0,.238.549c.055-.055.11-.128.165-.183a6.586,6.586,0,0,1,.275,1.428c-.165-.055-.256-.092-.384-.128.018.22.055.421.092.732.11-.2.183-.293.238-.4.055.018.11.037.11.055.073.275.311.549.037.86-.037.055.073.238.055.384a4.215,4.215,0,0,1-.256-.348c-.037.018-.055.018-.092.037.055.238.092.458.146.714-.165.092-.329.146-.421-.055-.018.128-.073.256-.018.348.183.329.384.641.586.97.128.2.275.4.384.6.092.2.146.384.476.348a.613.613,0,0,0-.055.769,2.245,2.245,0,0,0,.22-.146,14.878,14.878,0,0,0,1.153,2.288c-.055.092-.128.22-.2.329q.494.659.988,1.263a.273.273,0,0,0,.165.073c.22.037.293.165.366.366.037.11.11.256.183.275.421.073.6.439.879.7.146.146.146.421.4.476.018,0,.055.055.037.073-.11.366.275.476.384.714.037.055.146.073.22.092.073.037.183.037.238.073a3.529,3.529,0,0,1,.494.549,5.7,5.7,0,0,0,1.9,1.647.9.9,0,0,0,.293.092,1.8,1.8,0,0,1,.879.476c.22.238.476.439.86.238.037.311-.256.256-.348.439.073.073.146.165.238.256-.073.128-.128.238-.2.348.037.055.073.11.092.11a4.1,4.1,0,0,0,.805.128,1.654,1.654,0,0,1,1.007.366,2.808,2.808,0,0,0,.384.256.691.691,0,0,1,.366.476,2.134,2.134,0,0,0,.366.531c-.018.11-.037.256-.073.476.256-.055.458-.092.659-.128.165-.037.329-.092.458.092.055.073.2.073.293.11.22.073.513,0,.6.311,0,.018.055.018.092.018a.535.535,0,0,1,.549.439,2.235,2.235,0,0,1,2.123.073,1.961,1.961,0,0,0,.494.11c.018.073.037.22.11.238a1.412,1.412,0,0,0,.476.128c.238.018.513-.128.677.183a.254.254,0,0,0,.165,0c.146-.293.275-.092.421.018a1.374,1.374,0,0,1,1.007-.165c.311.018.6.073.9.11.311.018.641-.037.952-.018a3.708,3.708,0,0,1,.769.11c.055,0,.073.11.146.22.165-.128.329-.256.494-.4.055.073.11.165.146.22a5.471,5.471,0,0,1,2.105-.2v.476c.128-.165.238-.293.311-.4.531.037.384.677.787.787.275-.2.146-.476.183-.732.549.11.513.732.988.952.2-.128.439-.293.7-.458a2.843,2.843,0,0,0,.586-.641c.092.183.165.329.22.458a.827.827,0,0,0,.751-.165,5.138,5.138,0,0,1,.641-.311,2.819,2.819,0,0,0,.366.329.358.358,0,0,0,.293-.073.965.965,0,0,0,.2-.275,1.849,1.849,0,0,1,.165-.329.648.648,0,0,1,.9-.11c.092.055.165.128.275.2.146-.22.293-.421.458-.659.311-.037.641-.055,1.007-.092.11-.2-.439-.329-.128-.622.073.092.11.22.2.256a.4.4,0,0,0,.311-.055c.165-.092.146-.2-.073-.476.146-.128.293-.238.476-.4,0-.055-.018-.11-.018-.165a20.48,20.48,0,0,0,5.858-4.283,1.093,1.093,0,0,0,.348,0,1.787,1.787,0,0,0-.018-.348c.238-.256.476-.531.714-.805.018-.018.018-.037.037-.055.348-.421.7-.842,1.025-1.281.055.018.11.018.165.037a.322.322,0,0,0,.348-.384A.358.358,0,0,1,166.551,42.914ZM149.363,5.206c.018-.037.018-.055.037-.092a2.032,2.032,0,0,1,.293.128c-.018.018-.018.055-.037.073C149.564,5.28,149.454,5.243,149.363,5.206Zm1.611-1.757a.137.137,0,0,1-.018.092c-.128-.018-.256-.018-.476-.037C150.736,3.266,150.845,3.431,150.973,3.449Zm-.22.494.329.384C150.772,4.364,150.754,4.163,150.754,3.943ZM163.7,8.318V8.263c.018,0,.037-.018.037,0,.128.073.256.146.458.275C163.842,8.629,163.769,8.465,163.7,8.318Zm-36.317,14.79c.275.293.092.476-.018.622-.073.11-.128.366-.4.238C127.1,23.694,127.214,23.42,127.379,23.109ZM121.594,31.6v.513C121.411,31.968,121.484,31.785,121.594,31.6Zm3-2.544v-.183c.018,0,.073,0,.073.018a.686.686,0,0,1-.018.183A.067.067,0,0,0,124.6,29.058Zm.329.458c.055.366.128.732.183,1.117-.092.018-.165.055-.275.073-.018-.421-.037-.805-.055-1.19Zm-2.471,7.157c-.073-.238-.146-.458-.2-.7.037-.018.055-.018.092-.037.055.238.256.421.22.7C122.509,36.654,122.473,36.654,122.455,36.672Zm.037.677c-.018-.146-.037-.238-.055-.348C122.619,37.075,122.692,37.185,122.491,37.35Zm7.267,8.622c-.073-.037-.165-.073-.238-.11,0-.037.018-.055.018-.092.055,0,.128-.018.165,0a.441.441,0,0,1,.11.146Q129.758,45.944,129.758,45.971Zm1.611,1.538a.183.183,0,0,1-.073-.092l.11-.055a.464.464,0,0,1,.037.128C131.424,47.491,131.387,47.509,131.369,47.509Zm4.887,3.5.22.293C136.2,51.353,136.147,51.28,136.256,51.005Zm8.347-5s.018.073,0,.073c-.073.018-.165.037-.238.055,0-.055-.018-.092-.018-.146A1.3,1.3,0,0,1,144.6,46.008Zm-.6.348c.2-.037.366-.073.6-.11C144.457,46.685,144.4,46.685,144,46.356Zm1.922,6.443c-.037-.037-.073-.092-.11-.128.037-.018.073-.073.092-.073a.584.584,0,0,1,.128.11C145.995,52.762,145.94,52.817,145.921,52.8Zm21.929-40.088a11.55,11.55,0,0,0,.4,1.117,1.176,1.176,0,0,0,.183.238c.146.238.421.458.293.805.018.037.037.055.055.092l.22.165c.275.22.275.329,0,.549a1.728,1.728,0,0,0-.183.183.838.838,0,0,1-.256-.128c-.055-.11-.128-.238-.183-.348a.623.623,0,0,1,.018-.183c-.311-.6-.586-1.117-.842-1.647-.018-.037.091-.146.146-.238-.128-.11-.275-.22-.421-.348.146-.092.275-.146.439-.238-.128-.2-.238-.366-.348-.531A.71.71,0,0,1,167.851,12.711Zm-2.325-2.984c-.275.238-.366-.146-.567-.183-.091-.018-.146-.183-.275-.366C165.05,9.215,165.05,9.215,165.526,9.728Zm-1.574,13.71L163.9,23c.037,0,.073-.018.11-.018.037.146.055.275.092.421C164.061,23.42,164.007,23.42,163.952,23.438Zm.11,8.8c-.073-.018-.128-.037-.183-.055-.055.458-.11.567-.421.751.11-.348.2-.677.329-1.007.055-.146.238-.293.2-.384-.146-.329.146-.4.275-.567.183.22.055.494.073.732C164.043,31.785,164.1,32.041,164.061,32.243Zm-6.022,10.873a.067.067,0,0,0,.018.055c-.055.037-.128.073-.183.11l-.055-.11Z" transform="translate(-120.629 0.013)"/>
      </g>
    </g>
    <g id="Group_35" data-name="Group 35" transform="translate(376.095 5225.303)">
      <path id="Path_7" data-name="Path 7" class="cls-1" d="M0,370.1c0-6.551,5.058-11.2,12.152-11.2,4.583,0,8.181,1.969,9.742,5.533l-4.888,2.648a5.427,5.427,0,0,0-4.888-2.987c-3.191,0-5.7,2.24-5.7,6.042s2.512,6.042,5.7,6.042a5.331,5.331,0,0,0,4.888-2.987l4.888,2.682c-1.561,3.5-5.194,5.5-9.742,5.5C5.058,381.3,0,376.653,0,370.1Z" transform="translate(0 -350.957)"/>
      <path id="Path_8" data-name="Path 8" class="cls-1" d="M69.6,370.1c0-6.551,5.058-11.2,11.983-11.2s11.949,4.651,11.949,11.2-5.024,11.2-11.949,11.2S69.6,376.653,69.6,370.1Zm17.516,0c0-3.768-2.376-6.042-5.533-6.042s-5.567,2.274-5.567,6.042,2.444,6.042,5.567,6.042S87.116,373.87,87.116,370.1Z" transform="translate(-45.974 -350.957)"/>
      <path id="Path_9" data-name="Path 9" class="cls-1" d="M167.873,368.64v12.424h-5.906v-2.716c-1.188,1.969-3.428,3.021-6.619,3.021-5.092,0-8.147-2.817-8.147-6.585,0-3.836,2.716-6.518,9.335-6.518h5.024c0-2.716-1.629-4.277-5.024-4.277a10.525,10.525,0,0,0-6.28,2.037l-2.274-4.413a16.732,16.732,0,0,1,9.4-2.614C164.037,358.965,167.873,362.055,167.873,368.64Zm-6.314,5.533v-2.24h-4.345c-2.953,0-3.87,1.086-3.87,2.546,0,1.561,1.324,2.614,3.564,2.614A4.539,4.539,0,0,0,161.559,374.173Z" transform="translate(-97.232 -351.022)"/>
      <path id="Path_10" data-name="Path 10" class="cls-1" d="M220.9,370.1c0-6.551,5.058-11.2,12.152-11.2,4.583,0,8.181,1.969,9.742,5.533l-4.888,2.648a5.427,5.427,0,0,0-4.888-2.987c-3.191,0-5.7,2.24-5.7,6.042s2.512,6.042,5.7,6.042a5.331,5.331,0,0,0,4.888-2.987l4.888,2.682c-1.562,3.5-5.194,5.5-9.742,5.5C225.958,381.3,220.9,376.653,220.9,370.1Z" transform="translate(-145.915 -350.957)"/>
      <path id="Path_11" data-name="Path 11" class="cls-1" d="M317.868,353.15v12.458h-6.314V354.1c0-3.53-1.629-5.126-4.413-5.126-3.021,0-5.228,1.867-5.228,5.872v10.761H295.6V335.6h6.314v10.523a9.6,9.6,0,0,1,6.925-2.58C314,343.509,317.868,346.5,317.868,353.15Z" transform="translate(-195.258 -335.566)"/>
      <path id="Path_12" data-name="Path 12" class="cls-1" d="M416.267,369.9v12.356h-2.885V370.2c0-4.481-2.274-6.789-6.11-6.789-4.379,0-7.128,2.817-7.128,7.672v11.168h-2.885V370.2c0-4.481-2.274-6.789-6.144-6.789-4.345,0-7.129,2.817-7.129,7.672v11.168H381.1V360.97h2.75v3.87c1.494-2.546,4.243-4.039,7.807-4.039,3.53,0,6.28,1.494,7.57,4.481,1.528-2.75,4.583-4.481,8.418-4.481C412.873,360.8,416.267,363.787,416.267,369.9Z" transform="translate(-251.734 -352.212)"/>
      <path id="Path_13" data-name="Path 13" class="cls-1" d="M505.8,337.537a2.08,2.08,0,0,1,2.1-2.037,2.025,2.025,0,0,1,2.1,1.969,2.105,2.105,0,0,1-4.209.068Zm.645,6.721h2.885v21.284h-2.885Z" transform="translate(-334.105 -335.5)"/>
    </g>
  </g>
</svg>
