<svg xmlns="http://www.w3.org/2000/svg" xmlns:xlink="http://www.w3.org/1999/xlink" width="128.727" height="29.026" viewBox="0 0 128.727 29.026">
  <defs>
    <style>
      .cls-1 {
        fill: url(#linear-gradient);
      }

      .cls-2 {
        fill: url(#linear-gradient-2);
      }

      .cls-3 {
        fill: url(#linear-gradient-3);
      }

      .cls-4 {
        fill: url(#linear-gradient-4);
      }

      .cls-5 {
        fill: #316e7a;
      }
    </style>
    <linearGradient id="linear-gradient" x1="-0.262" y1="1.085" x2="0.499" y2="0.402" gradientUnits="objectBoundingBox">
      <stop offset="0" stop-color="#0cbcc1"/>
      <stop offset="1" stop-color="#9ed4ce"/>
    </linearGradient>
    <linearGradient id="linear-gradient-2" x1="1.156" y1="-0.263" x2="0.35" y2="0.59" xlink:href="#linear-gradient"/>
    <linearGradient id="linear-gradient-3" x1="-95.401" y1="41.485" x2="742.88" y2="-316.174" xlink:href="#linear-gradient"/>
    <linearGradient id="linear-gradient-4" x1="0.16" y1="0.876" x2="0.547" y2="0.512" xlink:href="#linear-gradient"/>
  </defs>
  <g id="Logotipo_Horizontal" data-name="Logotipo Horizontal" transform="translate(-81.917 -17.592)">
    <g id="Group_2" data-name="Group 2" transform="translate(81.917 17.592)">
      <path id="Path_1" data-name="Path 1" class="cls-1" d="M188.7,80.106c-.01-.02.03-.079.03-.118l.03-.3c-.079.069-.089.1-.079.237a.089.089,0,0,1-.049-.01c0,.059.03.128-.039.168.02.069,0,.148.059.207-.01.02-.03.049-.02.059a.209.209,0,0,1-.059.256c-.03.03-.03.059.01.089.01.01.03.03.03.039-.059.108.049.089.089.128.01.049.01.118.049.148a.453.453,0,0,1,.108.217c.049.108.02.158-.108.158-.02.059-.059.108.02.158.02.01.03.039.039.069.069.1.079.227.158.325.01.01.01.039.01.059a.2.2,0,0,0,.059.158.407.407,0,0,1,.069.108h.03c.01-.03.01-.049.02-.089.079.079.148.158.128.246s.03.158.039.237c.01.03.039.069.069.069.1.01.108.089.158.148.089.108.128.256.276.306a.133.133,0,0,1,.069.059,1.646,1.646,0,0,1,.158.237,2.453,2.453,0,0,0,.6.71.284.284,0,0,0,.2.069.334.334,0,0,1,.306.128c-.039.02-.069.03-.118.049a1.5,1.5,0,0,0,.148.128c.138.079.266.158.4.237l.3.148c.158.069.315.138.463.217l.739.355c.306.138.6.276.907.4a1.315,1.315,0,0,1,.444.365.52.52,0,0,1-.118.03c-.059.01-.1.02-.118.089a.146.146,0,0,0,.079.168.488.488,0,0,0,.128.039c.03.01.069.02.069.039a.207.207,0,0,0,.128.128.541.541,0,0,1,.089.069c0,.01-.01.02-.01.03l-.316-.059c-.01,0-.02.01-.03.01.089.089-.03.138-.02.207a.245.245,0,0,0,.089-.01c0,.039-.01.079-.01.1-.089.049-.168.089-.256.138.089.069-.03.108-.01.168.03.02.069.03.128.059l-.118.118c.059.049.108.1.2.168h-.227c.03.069.059.138.089.2a.8.8,0,0,1-.246-.1c-.039-.02-.089-.039-.118,0,.079.079.168.148.237.217-.03.079-.069.108-.138.1a.178.178,0,0,0-.1.02.283.283,0,0,1-.335.039.192.192,0,0,0-.079-.01,2,2,0,0,1-.256-.039,7.849,7.849,0,0,1-1.252-.345.292.292,0,0,0-.158-.02.326.326,0,0,1-.256-.03c-.059-.039-.187-.039-.158-.168l-.02-.02c-.1-.059-.187-.128-.286-.177a.245.245,0,0,0-.089-.01c-.03,0-.059-.01-.089-.01.02-.138-.1-.138-.168-.177-.01-.01-.02,0-.039,0a.1.1,0,0,0,.01.039,1.046,1.046,0,0,1-.187-.039.1.1,0,0,1-.069-.059.148.148,0,0,0-.118-.108,2.063,2.063,0,0,1-.227-.079.093.093,0,0,0-.089.01c-.059.049-.108.02-.158-.02a3.71,3.71,0,0,1-.306-.246,4.11,4.11,0,0,0-.365-.355c-.138-.1-.217-.256-.385-.315-.069-.118-.207-.177-.266-.315a2.849,2.849,0,0,0-.266-.365l.03-.059a.266.266,0,0,1-.148-.266c.02-.059,0-.079-.039-.108-.03.069-.02.158-.128.177a1.714,1.714,0,0,0-.108-.177c-.03-.049-.079-.079-.049-.148.01-.01-.039-.049-.069-.069.079-.108.079-.108.02-.217-.02-.049-.049-.089-.079-.148.039.02.069.049.108.049.089.01.128.049.128.128a.118.118,0,0,0,.089.118c.02-.049.039-.089.059-.128-.089-.1-.177-.187-.148-.335a.089.089,0,0,0-.01-.049c-.02-.059-.039-.118-.059-.187h0c-.01-.059-.02-.108-.03-.168h-.03c-.01.039-.03.079-.039.118h0c-.079-.069-.01-.128,0-.187.03-.01.059-.01.089-.02a1.887,1.887,0,0,0-.039-.207c-.039.079-.039.148-.1.148-.079-.108-.148-.207-.217-.306a.248.248,0,0,1-.039-.069.839.839,0,0,1-.039-.217c0-.089.079-.128.168-.148-.03-.049-.069-.079-.059-.138.01-.039-.039-.089-.059-.138a.53.53,0,0,1-.089-.118c-.059-.118-.128-.237-.177-.365a.245.245,0,0,1,0-.168.445.445,0,0,0,.069-.246c0-.02,0-.049.02-.059a.266.266,0,0,0,.039-.227.558.558,0,0,1,.059-.355c.03-.049.049-.1.079-.148-.049-.03-.108-.049-.158-.079,0-.01-.01-.02-.01-.03a.35.35,0,0,1,.1-.02c0-.01-.01-.02-.01-.03-.03,0-.069-.01-.108-.01.01-.059.02-.108.03-.168a.359.359,0,0,0-.01-.286c-.01-.01.01-.039.01-.049.059.01.108.01.187.02a.2.2,0,0,1-.069-.217.4.4,0,0,0-.03-.315c-.02-.049-.059-.1-.039-.158a.917.917,0,0,1,.128.039c-.03-.138-.108-.256-.049-.385a.146.146,0,0,1,.069.01c.03-.1.049-.187.079-.286a.585.585,0,0,1,.079-.039c-.02-.079-.02-.079.059-.237-.089-.118-.128-.207.138-.266,0-.069-.01-.148-.01-.217-.108-.02-.158.02-.177.108.02.03.03.059.059.1a.374.374,0,0,1-.276-.089v-.03a.481.481,0,0,0,.108-.039c-.01,0-.01-.01-.02-.01.059-.1.118-.207.187-.315-.059-.039-.128.01-.207.02-.02-.039-.069-.079-.059-.118.02-.138-.03-.266.03-.4a1.3,1.3,0,0,0,.049-.227H187.4c-.03-.089-.059-.168-.089-.246s0-.118.069-.128a.651.651,0,0,1,.138.01.288.288,0,0,1,.089.02c.01-.069.01-.138.02-.217-.049.03-.079.049-.138.079.039-.069.059-.108.089-.158a.209.209,0,0,0,.03-.069.234.234,0,0,1,.227-.207.062.062,0,0,0,.069-.069c-.1-.059-.1-.059-.128-.177.108-.039.158-.02.207.069.01.03.039.049.069.079.03-.108.108-.138.168-.187a.341.341,0,0,0,.148-.276c.059-.03.108-.079.187-.069a.086.086,0,0,0,.069-.049c.03-.089.108-.118.2-.138s.089-.03.079-.118c0-.039-.01-.079-.01-.128h-.108c-.01-.158.158-.207.207-.315a.662.662,0,0,0-.108-.069.1.1,0,0,1,.089-.01.282.282,0,0,0,.237-.039c.089-.039.108-.108.069-.207a1.2,1.2,0,0,1-.049-.138c.039-.059.079-.1.108-.138-.079-.059-.089-.1-.049-.128.02-.02.059-.039.079-.03s.049.039.069.059c.069-.1-.089-.108-.069-.168.1-.03.187-.059.276-.089.03-.079.059-.138.089-.207a.622.622,0,0,0,.089.039.182.182,0,0,0,.246-.079.377.377,0,0,0,.03-.1.244.244,0,0,1,.039-.089c.02-.02.059-.049.079-.039a.516.516,0,0,1,.118.069c.049-.039.118-.079.158-.118a.222.222,0,0,1,.2-.089q.03.044.089.118a.788.788,0,0,1,.128-.217l.168-.168c.148.039.177.207.335.207-.01-.079-.059-.138.01-.217.118.01.118.2.266.177.02-.03.039-.079.069-.128.01.049.02.079.03.128a1.589,1.589,0,0,0,.582-.177.262.262,0,0,1,.059.049,1.72,1.72,0,0,1,.118-.138c.03.03.039.059.049.059a.882.882,0,0,0,.227-.02,2.578,2.578,0,0,1,.266-.059c.089-.01.168-.01.256-.02a.424.424,0,0,0,.276-.108c.049.02.1.069.118-.02,0-.01.039-.02.049-.01.059.079.128.02.2.01a.317.317,0,0,1,.138.01c.02.01.03.049.039.059a.741.741,0,0,1,.148,0,.631.631,0,0,0,.6-.1.154.154,0,0,0,.177.1h.03c.049.079.118.039.187.049a.245.245,0,0,1,.089.01c.049.039.089.02.138,0s.108-.049.177-.079c0,.059.01.1.01.138.049.049.108.079.128.128a.216.216,0,0,0,.128.118.6.6,0,0,1,.118.049.471.471,0,0,0,.306.049,1.9,1.9,0,0,1,.237-.01q.015,0,.03.03a.482.482,0,0,1-.039.108.548.548,0,0,1,.079.059c-.01.059-.1.059-.069.138a.172.172,0,0,1,.246.02.453.453,0,0,0,.276.079.273.273,0,0,1,.089.01,1.677,1.677,0,0,1,.621.345,1.076,1.076,0,0,0,.168.128.168.168,0,0,0,.069.01c.02,0,.059,0,.069.01.049.059.158.069.148.177a.021.021,0,0,0,.02.02c.079,0,.089.079.138.108.089.059.158.148.286.148.02,0,.049.039.069.069.03.049.059.089.118.079a.074.074,0,0,1,.049.01c.118.1.227.2.355.3-.01.039-.03.069-.039.108.128.207.355.335.454.572l.059-.059h0a.176.176,0,0,1,.03.217c.089-.03.118.02.158.069a.981.981,0,0,0,.138.148,2.471,2.471,0,0,1,.217.237c.02.02.01.069.01.108h.01c-.039-.069-.079-.039-.128,0,.03.069.059.128.079.187-.01,0-.01.01-.02.01a.638.638,0,0,0-.089-.079c0,.049.049.089.039.108-.059.1.03.158.059.237a.049.049,0,0,1,.03.01c.01-.03.02-.059.039-.128.03.089.049.138.069.2-.039-.01-.059-.01-.118-.02a1.957,1.957,0,0,0,.158.385l.03.148c.02-.059.03-.118-.039-.148a.206.206,0,0,1,.039-.059c.069.03.079.089.1.138.039.108,0,.246.108.335.01.01,0,.039,0,.059s-.01.059,0,.079a.156.156,0,0,0,.049.079c.049.01.059-.03.059-.079,0-.01.01-.02.02-.03a.075.075,0,0,1,.01.118.266.266,0,0,0-.069.207c0,.01.01.01.02.02a.623.623,0,0,0,.089-.039,1.344,1.344,0,0,1,.039.168.3.3,0,0,0-.069.3c.039-.01.069-.01.108-.02-.1.168-.1.168.01.246a.183.183,0,0,0-.02.069,1.255,1.255,0,0,0-.02.266.481.481,0,0,1,.01.168,1.147,1.147,0,0,1-.039.177,1.035,1.035,0,0,1,.108.079c-.059.1-.118.187-.177.276.02.049.03.079.049.118-.01.01-.02.01-.03.02a.587.587,0,0,0-.079.444.062.062,0,0,1,0,.059c-.079.079-.049.177-.049.276v.276h0a.086.086,0,0,0-.089.039c-.059.158-.118.306-.177.463.079.01.03-.138.138-.079-.01.02-.01.039-.02.049-.128.2-.276.385-.384.592l-.01.01c-.158.177-.315.355-.473.523a1.57,1.57,0,0,1-.286.286c-.118.079-.168.217-.276.3a2.608,2.608,0,0,0-.286.286.355.355,0,0,0-.069.1.315.315,0,0,1-.217.187.106.106,0,0,1-.138-.03.094.094,0,0,1,.03-.128c.089-.1.177-.187.266-.286a.986.986,0,0,0,.2-.246,2.43,2.43,0,0,1,.217-.335,4.844,4.844,0,0,0,.454-.868c.049-.138.1-.276.148-.4a2.533,2.533,0,0,0,.158-.611.077.077,0,0,1,.069-.089v.2a.387.387,0,0,0,.079-.138c.02-.039.03-.108.059-.128.069-.039-.03-.1.049-.138a.567.567,0,0,1,.1.02c-.02-.059-.128-.049-.089-.158.02.02.03.049.049.049s.069,0,.069-.01a.3.3,0,0,0,0-.227l-.177.177c-.01-.01-.02-.01-.02-.02.03-.059.059-.108.089-.168a1.515,1.515,0,0,0-.118-.128c-.049.069-.02.138-.03.207s.049.138-.01.2.03.138-.069.187a1.076,1.076,0,0,1-.079-.582c-.059-.02-.1-.03-.158-.049.039-.069.049-.138.089-.177a.11.11,0,0,0,.01-.158c-.039-.049-.03-.069,0-.108a.19.19,0,0,0-.02-.217.361.361,0,0,1-.148.177.207.207,0,0,0-.039.059.383.383,0,0,0,.069.315,1.514,1.514,0,0,0-.049.168c-.01.059-.03.108-.089.118a.127.127,0,0,1-.138-.049c-.01-.02-.03-.03-.039-.049-.049.01-.079.01-.128.02.02-.108.039-.2.059-.3-.02-.01-.039-.01-.059-.02.01-.069.01-.138.02-.2a.749.749,0,0,0,.108-.039,1.157,1.157,0,0,1-.108-.049c.03-.039.049-.1.069-.108.1,0,.069-.069.059-.118h.089c-.01-.039-.01-.069-.02-.1.079-.128.177-.059.266-.02.039-.266.03-.306-.039-.375,0,.01-.01.03-.01.039,0,.059-.069.118.01.168-.02.01-.03.03-.059.049-.03-.089-.059-.148-.02-.227.02-.039-.01-.069-.059-.059h-.069c0-.069-.01-.118-.01-.187-.128.069-.049.187-.108.266-.03-.01-.069-.03-.1-.039a.7.7,0,0,0,.079-.335.2.2,0,0,1,.03-.108.474.474,0,0,0,.079-.158c.03-.1.03-.118-.069-.118-.049,0-.108,0-.128-.069.128-.1.128-.1.049-.207.049-.089.03-.158-.079-.325a.761.761,0,0,1-.148.02c-.03,0-.069.01-.089,0s-.039-.049-.049-.079c0,0,.039-.039.059-.039.049-.01.108.01.118-.049s-.039-.089-.079-.128c-.01-.01-.02,0-.02-.01-.069.1-.1.089-.177.02a5.358,5.358,0,0,0-.414-.4c-.02-.01-.03-.039-.039-.069-.01-.059-.02-.128-.03-.177.03-.02.049-.03.079-.049-.108-.089-.207-.158-.306-.237a.912.912,0,0,1-.1.049.735.735,0,0,1-.069-.118c-.01-.02-.049-.049-.039-.059.03-.069-.039-.089-.069-.128-.049-.049-.089-.108-.138-.158-.089-.089-.177-.187-.276-.276a.119.119,0,0,0-.1-.03.435.435,0,0,1-.315-.049c-.108-.039-.207-.089-.316-.138-.118-.069-.237-.138-.365-.217-.059-.03-.108-.069-.168-.1-.02-.01-.049-.02-.1-.039a.96.96,0,0,1,.158-.01c-.039-.1-.1-.079-.158-.059a.44.44,0,0,1-.414-.039.119.119,0,0,0-.148,0,.136.136,0,0,1-.158.03c-.168-.039-.325-.089-.493-.128a.6.6,0,0,1-.059-.039c.039-.01.079-.02.108-.03-.187-.059-.375-.118-.552-.168-.108-.03-.227-.039-.335-.059h-.03c-.079.01-.158.01-.237.02-.03,0-.049.02-.089.039.089.069.207.02.266.1a.113.113,0,0,1-.128.1h-.276c-.01,0-.02-.01-.03-.02a.431.431,0,0,0,.039-.069h-.079a.179.179,0,0,0-.187.069.573.573,0,0,1-.345.168c-.049.01-.089.01-.118-.03.03-.039.079-.069.079-.1.02-.1.089-.128.168-.158a.137.137,0,0,0,.079-.069.925.925,0,0,0,.059-.148.266.266,0,0,0-.217.1.214.214,0,0,1-.177.079.523.523,0,0,0-.266.079.228.228,0,0,0-.148.138c-.039.108-.108.138-.227.128a.125.125,0,0,0-.059.01,2.334,2.334,0,0,0-.335.128c-.089.039-.207.01-.286.1-.1-.039-.148.039-.207.089a.268.268,0,0,1-.168.079c.03-.059.049-.108.089-.177-.049.01-.079,0-.1.01-.168.108-.345.207-.513.315a.07.07,0,0,0-.03.059.16.16,0,0,1-.108.148c-.049.02-.108.039-.089.128.01.049-.049.1-.079.069-.069-.039-.108.01-.148.039a1.047,1.047,0,0,0-.2.168.265.265,0,0,0-.079.177c.02.079-.02.1-.059.138-.148-.089-.177.1-.3.118.01-.049.02-.089.039-.158-.069.059-.108.1-.158.138a.717.717,0,0,0,.089.079.543.543,0,0,0-.2.424c.039.049.108.079.069.168-.02.03-.03.059-.049.089-.02-.03-.039-.049-.049-.069-.089.059-.168.118-.246.168-.02.01-.03.039-.039.069-.069.138-.128.286-.187.434a.636.636,0,0,0-.03.2c0,.069.01.128.01.217a.139.139,0,0,1,.039.039.07.07,0,0,1-.049.108c-.118.03-.128.049-.128.148,0,.158.02.325.02.483,0,.089.089.128.069.237a.284.284,0,0,0,.128-.207c.039-.118.049-.237.177-.306.01-.01.02-.03.03-.039.01-.039.03-.069.069-.059s.039.059.039.1a.122.122,0,0,1-.039.079.639.639,0,0,1-.079.089.215.215,0,0,0-.049-.03c-.1.079.02.118.03.177-.049.039-.089.089-.039.148a.425.425,0,0,1-.089.059,1.833,1.833,0,0,1,.01.217,2.366,2.366,0,0,1-.118.375.143.143,0,0,1-.148.1C188.683,80.224,188.762,80.194,188.7,80.106Zm-.385,4.92c-.01.108.069.148.128.207.02.02.049.03.069.059.059.1.128.187.177.286a.234.234,0,0,0,.168.118l-.128-.128c.039-.03.069-.059.108-.089-.049-.03-.1-.049-.138-.069a.406.406,0,0,0,.03-.079c-.1-.138-.207-.266-.325-.414.01-.079-.03-.148-.158-.158-.01.02-.03.039-.039.059-.069.079-.059.108.03.158.02.01.049.02.069.03C188.308,85.015,188.308,85.025,188.318,85.025Zm11.358-6.911a.565.565,0,0,1-.069.039c.039.108.079.207.118.306.01,0,.03-.01.039-.01C199.735,78.331,199.705,78.232,199.676,78.114Zm-.207,2c-.079-.02-.079.049-.1.089s-.069.108.03.177C199.429,80.283,199.449,80.2,199.469,80.115Zm-9.79,6.182c-.059,0-.108-.1-.168-.02.168.118.168.118.266.108C189.728,86.346,189.708,86.3,189.679,86.3Zm-1.785-9.79a.07.07,0,0,0,.03-.059c0-.02-.02-.049-.039-.049a.07.07,0,0,0-.059.03c-.02.02-.03.049-.069.1A1.113,1.113,0,0,0,187.894,76.507Zm.069-.168c.01.059.01.108.02.177.03-.069.059-.128.1-.207A.671.671,0,0,0,187.963,76.339Zm5.482-1.508c-.138-.069-.148-.059-.168.069C193.346,74.87,193.386,74.851,193.445,74.831Zm6.566,1.479c-.01,0-.02.01-.03.01,0,.079.069.118.1.177a.035.035,0,0,0,.02-.01C200.07,76.438,200.041,76.369,200.011,76.31Zm-6.044,10.746c-.01-.059-.03-.118-.118-.089Zm-4.013-.513c.059.02.1.039.138.049h.01v-.01C190.073,86.534,190.044,86.494,189.955,86.544Zm3.973.641v.03c.039,0,.079.039.128-.039A.482.482,0,0,0,193.928,87.184Zm-4.752-4.693c.01,0,.02-.01.03-.01-.01-.039-.03-.079-.039-.118-.01.01-.03.01-.039.02A.528.528,0,0,1,189.176,82.492Zm8.262-8.361c0,.01-.01.01-.01.02s.02.03.039.03a.107.107,0,0,0,.049-.01v-.03C197.487,74.141,197.467,74.131,197.438,74.131Zm-3.165,12.521v-.03c-.03,0-.059-.01-.089-.01v.02A.288.288,0,0,0,194.273,86.652Zm.986-13.625c.02.02.039.03.079.069C195.358,73.007,195.338,73,195.259,73.027Zm4.7,3.106c-.049.059-.02.079.039.089A.244.244,0,0,1,199.962,76.132ZM187.441,80.47h-.03a.273.273,0,0,0-.01.089h.039Zm5.846-5.531.01.02a.183.183,0,0,0,.069-.02c0-.01-.01-.03-.01-.039A.247.247,0,0,1,193.287,74.939Zm-5.541,3.214a.034.034,0,0,0,.02-.01.143.143,0,0,1-.02-.069c-.01.01-.02.01-.03.02Zm4.8-4.959c.01,0,.02-.02.02-.02a.136.136,0,0,0-.039-.03l-.03.03C192.528,73.185,192.538,73.194,192.548,73.194Zm4.377.621c-.01-.01-.02-.02-.03-.02a.034.034,0,0,1-.02.01c.01.01.01.02.02.03C196.915,73.825,196.925,73.825,196.925,73.816Zm-7.227,2.7a.01.01,0,0,0,.01.01l.059-.03c-.01-.01-.01-.02-.02-.03A.116.116,0,0,1,189.7,76.517Zm-2.307,4.18c-.01,0-.01-.01-.02-.01a.216.216,0,0,1-.03.049c.01,0,.01.01.02.01A.215.215,0,0,0,187.392,80.7Zm12.442-2.08h.02c0-.02-.01-.03-.01-.049h-.02A.107.107,0,0,0,199.834,78.617Z" transform="translate(-180.592 -65.621)"/>
      <path id="Path_2" data-name="Path 2" class="cls-2" d="M249.329,140.468c-.03-.02-.049-.039-.079-.059l-.059.237a.3.3,0,0,0,.02.079c0,.039.02.089,0,.118a.136.136,0,0,0,.03.138c-.02.049-.03.1-.049.148-.069,0-.1.049-.128.108s-.079.089-.108.138a1.277,1.277,0,0,1-.621.454,1.08,1.08,0,0,1-.256.059.145.145,0,0,1-.108-.02,1.062,1.062,0,0,0-.237-.118c-.02-.01-.049-.02-.059-.039s-.03-.079-.079-.039c0,0-.02,0-.02-.01-.039-.089-.138-.108-.207-.168a.85.85,0,0,1-.128-.138.075.075,0,0,0-.039-.02c-.108-.049-.148-.108-.128-.217a.186.186,0,0,0-.059-.187.181.181,0,0,1-.039-.227c.069-.108.01-.187-.01-.286.039-.059.069.03.108.01a.06.06,0,0,0-.01-.1.15.15,0,0,1-.049-.168c.03.059.059.108.089.168a.189.189,0,0,0,.148-.039c0-.128.059-.246,0-.384a.565.565,0,0,1,.118-.01,1.248,1.248,0,0,0,.128.108c.059.039.089.02.108-.049s.02-.079.1-.069a.365.365,0,0,0-.1-.286.779.779,0,0,0,.128.03.876.876,0,0,0,.138-.03l.128.128.118-.03a.622.622,0,0,1,.039-.089.346.346,0,0,0,.079.049.354.354,0,0,0,.108.02c.089,0,.187-.01.286-.02v.069a.793.793,0,0,0,.256.089,1.073,1.073,0,0,1,.246.1.124.124,0,0,1,.069.158.326.326,0,0,0,.069.227c.03.049.069.1.1.148C249.348,140.458,249.339,140.468,249.329,140.468Z" transform="translate(-234.494 -125.836)"/>
      <g id="Group_1" data-name="Group 1" transform="translate(0 0)">
        <path id="Path_4" data-name="Path 4" class="cls-3" d="M124.7,193.21c0,.01.01.01.01.02v-.03C124.72,193.2,124.7,193.21,124.7,193.21Z" transform="translate(-124.299 -174.151)"/>
        <path id="Path_5" data-name="Path 5" class="cls-4" d="M145.363,23.108a14.77,14.77,0,0,0,2.573-7.582,13.87,13.87,0,0,0-.946-5.9.778.778,0,0,0-.177-.611c.049-.069.1-.128.158-.207a.22.22,0,0,1,.128.256.235.235,0,0,0,.2.3.669.669,0,0,1,.177.138q-.044-.163-.089-.3c-.069-.227-.069-.227.108-.4-.039-.059-.108-.138-.1-.158.079-.118,0-.2-.039-.3-.049-.118-.089-.246-.128-.365-.207.01-.217.168-.3.286-.079-.079-.1-.128-.039-.227a.513.513,0,0,0-.168-.542c.03-.039.049-.079.069-.1a3.826,3.826,0,0,1-.355-.769c-.069-.276-.3-.434-.375-.69-.286-.168-.375-.5-.592-.73a6.668,6.668,0,0,1-.542-.8c-.148-.2-.315-.385-.473-.572-.069-.079-.148-.158-.286-.089a.181.181,0,0,1-.158-.02c-.128-.069-.256-.148-.385-.227a.3.3,0,0,1-.177-.246.163.163,0,0,0-.1-.128A2.636,2.636,0,0,0,143.016,3v.079a.168.168,0,0,1-.069-.01c-.108-.108-.325-.158-.237-.4-.049-.02-.108-.039-.158-.059s-.118-.02-.158-.059c-.158-.138-.306-.3-.463-.444-.01-.01-.03-.03-.03-.039.1-.227-.128-.276-.227-.375a.589.589,0,0,0-.463-.148.57.57,0,0,1-.276-.089A13.057,13.057,0,0,0,138.747.333c-.148-.059-.315-.108-.463-.168-.049-.02-.108-.02-.138-.049a.552.552,0,0,0-.631-.059.3.3,0,0,1-.187,0c-.128-.049-.207,0-.3.118.118.158.237.315.365.483-.079.079-.158.01-.227-.039a1.7,1.7,0,0,0-.434-.266c.03.128.059.256.1.394-.128-.02-.246-.049-.424-.079.128.168.217.276.306.385-.069.049-.158.1-.266.168.1.069.168.118.217.158.02.118-.217.148-.079.306-.177.059-.335.108-.523.168-.01.039-.03.108-.049.177.049.01.1.01.168.02,0,.138-.237.187-.108.385a.193.193,0,0,0-.069.01c-.187-.079-.365-.158-.552-.227a.173.173,0,0,1-.039.049,1.8,1.8,0,0,0,.128.158c.089.079.187.138.187.276,0,.039.069.079.118.108.069.049.148.079.217.128a.287.287,0,0,1,.079.335c-.049.118-.138.128-.246.118a1.822,1.822,0,0,0-.227.01,2.263,2.263,0,0,0,.68.838c.523.355,1.025.73,1.538,1.094.414.306.818.621,1.232.927.256.2.523.375.779.572.168.128.325.256.483.385.227.2.454.394.661.592a1.919,1.919,0,0,1,.217.3c-.1.02-.148.03-.227.039a.634.634,0,0,0,.513.355.494.494,0,0,1,.345.2,4.357,4.357,0,0,1,.848,1.538,5.41,5.41,0,0,0,.207.5.233.233,0,0,0,.108.128c.276.138.286.444.4.67.069.128.069.286.237.345a.187.187,0,0,1,.089.158,1.012,1.012,0,0,1-.01.454.547.547,0,0,0,.148.5c.03-.069.049-.108.069-.158.02.01.049.01.049.02.03.079.059.158.089.227a.375.375,0,0,1,.049.306.252.252,0,0,0-.01.118,5.13,5.13,0,0,1,.168.67c.02.049.02.108.059.138.128.118.049.2-.02.3-.237-.039-.306.03-.266.256a.824.824,0,0,0,.128.444c.049.059.02.187.03.286.059.079.276.089.118.266-.01.01.02.049.039.079a.106.106,0,0,1-.02.168.392.392,0,0,0-.207.454c.01.03-.039.059-.059.1a.279.279,0,0,0-.306.138,5.239,5.239,0,0,0-.365.651,1.688,1.688,0,0,0-.069.4c-.02.01-.089.039-.177.079.059.128-.03.207-.138.266,0,.128.207.246-.01.345L143,18.464c-.059.049-.128.089-.177.138a.444.444,0,0,0-.1.138c-.02.069-.059.158.03.2s.118-.02.158-.089a.155.155,0,0,1,.069-.069c.256-.079.335-.3.444-.5a.6.6,0,0,1,.325-.335c-.079.187.069.3.03.463-.069.3-.089.6-.148.9-.039.2-.079.207-.306.227a.135.135,0,0,0-.128.187.228.228,0,0,0,.059.089,3.58,3.58,0,0,1-.059.4,1.056,1.056,0,0,1-.138.345c-.158.246-.335.483-.513.73a.351.351,0,0,1-.1.108c-.168.079-.345.148-.532.227l-.069-.138a1.715,1.715,0,0,0-.128.148c-.108.138,0,.227.059.325a1.012,1.012,0,0,1-.532.7c.049.069.089.118.128.177-.089.049-.187.108-.335.2.059-.128.1-.2.138-.276-.217-.01-.335.335-.582.108-.089.049-.168.079-.158.227,0,.1-.118.217-.207.3a2.223,2.223,0,0,1-.424.237c-.089.039-.177.118-.3.02-.059-.049-.187.02-.177.108,0,.158-.118.177-.207.2a.306.306,0,0,0-.266.227.131.131,0,0,1-.069.089c-.355.138-.71.266-1.065.394a.67.67,0,0,1-.187-.01c.089-.108.148-.187.227-.286a.417.417,0,0,0-.345.079c-.128.069-.246.2-.414.089-.168.138-.375.03-.562.079-.217.049-.444.069-.661.108a.243.243,0,0,1-.118-.01.339.339,0,0,0-.463.148.488.488,0,0,1-.315.207,1,1,0,0,1-.513.039.513.513,0,0,0-.355.079.534.534,0,0,1-.434.1,2.292,2.292,0,0,1,.168-.256.271.271,0,0,1,.177-.1c.168-.02.306-.049.375-.227.03-.069.118-.1.187-.158-.049-.1-.118-.1-.207-.108a1.112,1.112,0,0,0-.71.177.354.354,0,0,1-.375.049c-.039-.01-.079-.02-.138-.039a1.288,1.288,0,0,1,.108-.118c-.02-.02-.03-.049-.049-.049-.168-.039-.335-.079-.513-.108a.209.209,0,0,0-.266.128c.079.177.315.128.454.286a.845.845,0,0,1-.177.039c-.148-.01-.3-.03-.444-.049a.089.089,0,0,1-.049-.01c-.2-.079-.4-.138-.6-.237-.325-.158-.631-.345-.966-.523.069-.01.128-.01.207-.02-.039-.039-.059-.089-.1-.1-.286-.148-.572-.286-.868-.424a.285.285,0,0,0-.306,0,.2.2,0,0,1-.266-.059.844.844,0,0,0-.749-.237c-.108.02-.237.039-.266-.158.089.01.168.02.3.03-.079-.059-.128-.079-.168-.118-.089-.079-.177-.168-.266-.256-.2-.177-.384-.365-.582-.532a4.632,4.632,0,0,0-.523-.375.834.834,0,0,0-.562-.217.206.206,0,0,1-.168-.089c-.148-.2-.276-.4-.414-.611-.069-.108-.128-.227-.2-.345-.049-.079-.158-.128-.079-.256.01-.02-.039-.089-.059-.128q-.044-.1-.089-.237a1.646,1.646,0,0,1-.2.059c-.148-.177-.306-.355-.463-.552.059-.02.1-.03.168-.049,0-.1.01-.217.01-.345a.214.214,0,0,0-.049-.138,8.067,8.067,0,0,1-.621-.9c-.118-.168-.177-.177-.335-.03-.01-.01-.039-.01-.039-.02-.049-.079-.148-.158-.089-.266s.158-.059.246-.049a.222.222,0,0,0,.118-.049.321.321,0,0,0-.069-.168.3.3,0,0,0-.168-.03c-.1-.01-.2-.01-.286-.02-.128-.365-.128-.493-.01-.641-.108-.227-.108-.227.168-.355-.01-.128-.108-.148-.207-.168-.187-.049-.187-.079-.089-.256a.878.878,0,0,1,.207-.256.333.333,0,0,0,.089-.2,1.472,1.472,0,0,1,.276-.592c-.059-.039-.108-.079-.168-.118-.138.118-.039.365-.3.454.02-.138.03-.237.049-.365a.5.5,0,0,0-.118-.02c-.108,0-.138-.059-.089-.138a.524.524,0,0,0,.049-.424c-.059.03-.089.049-.128.069.118.128-.03.217-.049.315l-.03.059c-.118-.158-.108-.237.059-.71.148.108.3.266.493.069v-.2c.059.01.108.02.158.03,0-.1-.03-.227.148-.2.049.01.108-.1.177-.168-.069-.049-.108-.079-.187-.138.089-.01.138-.02.217-.03.03-.108.069-.227.108-.365-.03-.02-.069-.039-.1-.059.079-.177.148-.345.217-.532-.089-.01-.158-.01-.246-.02a.91.91,0,0,0-.049-.1.222.222,0,0,0-.237-.148c-.108.01-.168.1-.207.2a2.752,2.752,0,0,1-.148.3.7.7,0,0,1,0,.611.238.238,0,0,1-.1.1.767.767,0,0,0-.345.276.319.319,0,0,1,.039-.4.151.151,0,0,0,.03-.207.215.215,0,0,1,.079-.286,1.04,1.04,0,0,0,.237-.286,2.454,2.454,0,0,1-.276-.148,2.092,2.092,0,0,0,.079-1.1c-.2.039-.089.246-.2.315-.148.089-.059.246-.1.365s0,.266-.128.365c-.059-.1-.108-.187-.168-.286.069-.089.148-.177.217-.276-.01-.02-.03-.03-.039-.049-.128.079-.246.168-.394.266a.549.549,0,0,1,.079-.414c.01-.02.1-.01.138,0s.039.059.069.108c.108-.177-.089-.2-.108-.315a1.54,1.54,0,0,0,.168.069c.158-.03-.01-.187.138-.237.069-.02.108-.138.158-.207a1,1,0,0,1,.187-.227c-.03.118-.049.227-.079.355.118.01.138-.069.158-.138a5.334,5.334,0,0,1,.523-1.065c.138-.237.276-.473.424-.7a8.23,8.23,0,0,1,1.173-1.439,4.593,4.593,0,0,0,.532-.542,1.846,1.846,0,0,1,.454-.385c.2-.148.4-.286.6-.434.079-.059.138-.128.1-.237s-.148-.128-.246-.118a.57.57,0,0,0-.483.266.6.6,0,0,1-.158.158,4.484,4.484,0,0,1-.631.434c-.246.108-.375.345-.621.444a3.01,3.01,0,0,0-.641.424c-.365.256-.72.532-1.085.789-.01,0-.01.01-.02.02-.286.345-.631.631-.937.946a.713.713,0,0,0-.049.089c.177.148.138-.148.276-.108-.168.266-.335.532-.493.789-.049.079-.108.059-.168.049-.03.168-.069.345-.108.513s-.03.365-.2.483a.153.153,0,0,0-.02.118,1.012,1.012,0,0,1-.306.789c-.01.02-.039.02-.059.039a2.366,2.366,0,0,0,.039.237c-.138.138-.286.286-.434.444.049.059.108.118.168.187-.039.108-.089.207-.128.315a.792.792,0,0,0-.039.306,1.821,1.821,0,0,1-.128.493.51.51,0,0,1-.059.128c.177.2.177.2-.079.463.069,0,.128.01.2.01a.552.552,0,0,1-.237.513c.01.1.01.2.02.315.079-.02.128-.03.187-.039.01.02.03.039.02.049a.434.434,0,0,1-.207.345.129.129,0,0,0-.03.217c.02-.02.049-.03.049-.049.02-.079.059-.158.148-.118.039.02.059.108.069.168a.226.226,0,0,1-.039.138c-.01.039-.039.1-.02.118.168.207.049.444.079.67a.358.358,0,0,0,.128.3c.03-.03.059-.069.089-.1a3.547,3.547,0,0,1,.148.769c-.089-.03-.138-.049-.207-.069.01.118.03.227.049.394.059-.108.1-.158.128-.217.03.01.059.02.059.03.039.148.168.3.02.463-.02.03.039.128.03.207a2.272,2.272,0,0,1-.138-.187c-.02.01-.03.01-.049.02.03.128.049.246.079.385-.089.049-.177.079-.227-.03-.01.069-.039.138-.01.187.1.177.207.345.315.523.069.108.148.217.207.325s.079.207.256.187a.33.33,0,0,0-.03.414,1.209,1.209,0,0,0,.118-.079,8.013,8.013,0,0,0,.621,1.232c-.03.049-.069.118-.108.177q.266.355.532.68a.147.147,0,0,0,.089.039c.118.02.158.089.2.2.02.059.059.138.1.148.227.039.325.237.473.375.079.079.079.227.217.256.01,0,.03.03.02.039-.059.2.148.256.207.385.02.03.079.039.118.049s.1.02.128.039a1.9,1.9,0,0,1,.266.3,3.07,3.07,0,0,0,1.025.887.487.487,0,0,0,.158.049.97.97,0,0,1,.473.256c.118.128.256.237.463.128.02.168-.138.138-.187.237.039.039.079.089.128.138-.039.069-.069.128-.108.187.02.03.039.059.049.059a2.207,2.207,0,0,0,.434.069.891.891,0,0,1,.542.2,1.512,1.512,0,0,0,.207.138.372.372,0,0,1,.2.256,1.149,1.149,0,0,0,.2.286c-.01.059-.02.138-.039.256.138-.03.246-.049.355-.069.089-.02.177-.049.246.049.03.039.108.039.158.059.118.039.276,0,.325.168,0,.01.03.01.049.01a.288.288,0,0,1,.3.237,1.2,1.2,0,0,1,1.144.039,1.056,1.056,0,0,0,.266.059c.01.039.02.118.059.128a.761.761,0,0,0,.256.069c.128.01.276-.069.365.1a.137.137,0,0,0,.089,0c.079-.158.148-.049.227.01a.74.74,0,0,1,.542-.089c.168.01.325.039.483.059s.345-.02.513-.01a2,2,0,0,1,.414.059c.03,0,.039.059.079.118.089-.069.177-.138.266-.217.03.039.059.089.079.118a2.947,2.947,0,0,1,1.134-.108v.256c.069-.089.128-.158.168-.217.286.02.207.365.424.424.148-.108.079-.256.1-.394.3.059.276.394.532.513.108-.069.237-.158.375-.246a1.531,1.531,0,0,0,.315-.345c.049.1.089.177.118.246a.445.445,0,0,0,.4-.089,2.769,2.769,0,0,1,.345-.168,1.518,1.518,0,0,0,.2.177.193.193,0,0,0,.158-.039.52.52,0,0,0,.108-.148,1,1,0,0,1,.089-.177.349.349,0,0,1,.483-.059c.049.03.089.069.148.108.079-.118.158-.227.246-.355.168-.02.345-.03.542-.049.059-.108-.237-.177-.069-.335.039.049.059.118.108.138a.214.214,0,0,0,.168-.03c.089-.049.079-.108-.039-.256.079-.069.158-.128.256-.217,0-.03-.01-.059-.01-.089a11.03,11.03,0,0,0,3.155-2.307.589.589,0,0,0,.187,0,.961.961,0,0,0-.01-.187c.128-.138.256-.286.385-.434.01-.01.01-.02.02-.03.187-.227.375-.454.552-.69.03.01.059.01.089.02a.173.173,0,0,0,.187-.207A.193.193,0,0,1,145.363,23.108ZM136.105,2.8c.01-.02.01-.03.02-.049a1.1,1.1,0,0,1,.158.069c-.01.01-.01.03-.02.039C136.214,2.838,136.155,2.818,136.105,2.8Zm.868-.946a.074.074,0,0,1-.01.049c-.069-.01-.138-.01-.256-.02C136.845,1.753,136.9,1.842,136.973,1.852Zm-.118.266.177.207C136.864,2.345,136.855,2.236,136.855,2.118Zm6.97,2.356v-.03c.01,0,.02-.01.02,0,.069.039.138.079.246.148C143.9,4.642,143.864,4.553,143.825,4.474Zm-19.56,7.966c.148.158.049.256-.01.335-.039.059-.069.2-.217.128C124.117,12.756,124.176,12.608,124.265,12.44Zm-3.115,4.575v.276C121.05,17.212,121.09,17.114,121.149,17.015Zm1.617-1.37v-.1c.01,0,.039,0,.039.01a.369.369,0,0,1-.01.1A.036.036,0,0,0,122.766,15.645Zm.177.246c.03.2.069.394.1.6-.049.01-.089.03-.148.039-.01-.227-.02-.434-.03-.641Zm-1.331,3.855c-.039-.128-.079-.246-.108-.375.02-.01.03-.01.049-.02.03.128.138.227.118.375C121.642,19.736,121.622,19.736,121.612,19.746Zm.02.365c-.01-.079-.02-.128-.03-.187C121.7,19.963,121.741,20.022,121.632,20.111Zm3.914,4.644c-.039-.02-.089-.039-.128-.059,0-.02.01-.03.01-.049.03,0,.069-.01.089,0a.237.237,0,0,1,.059.079Q125.546,24.74,125.546,24.754Zm.868.828a.1.1,0,0,1-.039-.049l.059-.03a.25.25,0,0,1,.02.069C126.443,25.573,126.424,25.583,126.414,25.583Zm2.632,1.883.118.158C129.017,27.653,128.987,27.614,129.046,27.466Zm4.5-2.692s.01.039,0,.039l-.128.03c0-.03-.01-.049-.01-.079A.7.7,0,0,1,133.542,24.774Zm-.325.187c.108-.02.2-.039.325-.059C133.463,25.139,133.433,25.139,133.217,24.961Zm1.035,3.47c-.02-.02-.039-.049-.059-.069.02-.01.039-.039.049-.039a.314.314,0,0,1,.069.059C134.291,28.412,134.262,28.442,134.252,28.432ZM146.063,6.84a6.22,6.22,0,0,0,.217.6.633.633,0,0,0,.1.128c.079.128.227.246.158.434.01.02.02.03.03.049l.118.089c.148.118.148.177,0,.3a.93.93,0,0,0-.1.1.452.452,0,0,1-.138-.069c-.03-.059-.069-.128-.1-.187a.335.335,0,0,1,.01-.1c-.168-.325-.315-.6-.454-.887-.01-.02.049-.079.079-.128-.069-.059-.148-.118-.227-.187.079-.049.148-.079.237-.128-.069-.108-.128-.2-.187-.286A.383.383,0,0,1,146.063,6.84Zm-1.252-1.607c-.148.128-.2-.079-.306-.1-.049-.01-.079-.1-.148-.2C144.554,4.957,144.554,4.957,144.811,5.233Zm-.848,7.384-.03-.237c.02,0,.039-.01.059-.01.02.079.03.148.049.227C144.022,12.608,143.993,12.608,143.963,12.618Zm.059,4.742c-.039-.01-.069-.02-.1-.03-.03.246-.059.306-.227.4.059-.187.108-.365.177-.542.03-.079.128-.158.108-.207-.079-.177.079-.217.148-.306.1.118.03.266.039.394C144.012,17.114,144.042,17.252,144.022,17.36Zm-3.244,5.856a.036.036,0,0,0,.01.03c-.03.02-.069.039-.1.059l-.03-.059Z" transform="translate(-120.629 0.013)"/>
      </g>
    </g>
    <g id="Group_3" data-name="Group 3" transform="translate(115.9 21.525)">
      <path id="Path_7" data-name="Path 7" class="cls-5" d="M0,364.933C0,361.4,2.724,358.9,6.545,358.9c2.468,0,4.406,1.06,5.247,2.98L9.16,363.306A2.923,2.923,0,0,0,6.527,361.7a3.26,3.26,0,0,0,0,6.509A2.871,2.871,0,0,0,9.16,366.6l2.633,1.444A5.42,5.42,0,0,1,6.545,371C2.724,370.967,0,368.462,0,364.933Z" transform="translate(0 -354.622)"/>
      <path id="Path_8" data-name="Path 8" class="cls-5" d="M69.6,364.933c0-3.529,2.724-6.033,6.454-6.033s6.436,2.5,6.436,6.033-2.706,6.033-6.436,6.033S69.6,368.462,69.6,364.933Zm9.434,0a3,3,0,1,0-2.98,3.254A2.959,2.959,0,0,0,79.034,364.933Z" transform="translate(-56.875 -354.622)"/>
      <path id="Path_9" data-name="Path 9" class="cls-5" d="M158.334,364.192v6.692h-3.181v-1.463a3.856,3.856,0,0,1-3.565,1.627c-2.742,0-4.388-1.517-4.388-3.547,0-2.066,1.463-3.51,5.028-3.51h2.706c0-1.463-.878-2.3-2.706-2.3a5.669,5.669,0,0,0-3.382,1.1l-1.225-2.377A9.012,9.012,0,0,1,152.685,359C156.268,358.981,158.334,360.645,158.334,364.192Zm-3.4,2.98v-1.207h-2.34c-1.591,0-2.084.585-2.084,1.371,0,.841.713,1.408,1.92,1.408A2.445,2.445,0,0,0,154.934,367.172Z" transform="translate(-120.287 -354.703)"/>
      <path id="Path_10" data-name="Path 10" class="cls-5" d="M220.9,364.933c0-3.529,2.724-6.033,6.545-6.033,2.468,0,4.406,1.06,5.247,2.98l-2.633,1.426a2.923,2.923,0,0,0-2.633-1.609,3.26,3.26,0,0,0,0,6.509,2.871,2.871,0,0,0,2.633-1.609l2.633,1.444A5.42,5.42,0,0,1,227.445,371C223.624,370.967,220.9,368.462,220.9,364.933Z" transform="translate(-180.513 -354.622)"/>
      <path id="Path_11" data-name="Path 11" class="cls-5" d="M307.594,345.052v6.71h-3.4v-6.2c0-1.9-.878-2.761-2.377-2.761-1.627,0-2.816,1.006-2.816,3.163v5.8h-3.4V335.6H299v5.668a5.168,5.168,0,0,1,3.73-1.389C305.509,339.86,307.594,341.469,307.594,345.052Z" transform="translate(-241.555 -335.582)"/>
      <path id="Path_12" data-name="Path 12" class="cls-5" d="M400.041,365.7v6.655h-1.554v-6.491c0-2.413-1.225-3.657-3.291-3.657-2.359,0-3.839,1.517-3.839,4.132v6.015H389.8v-6.491c0-2.413-1.225-3.657-3.309-3.657-2.34,0-3.839,1.517-3.839,4.132v6.015H381.1V360.891h1.481v2.084a4.631,4.631,0,0,1,4.205-2.176,4.114,4.114,0,0,1,4.077,2.413A4.991,4.991,0,0,1,395.4,360.8C398.213,360.8,400.041,362.409,400.041,365.7Z" transform="translate(-311.423 -356.174)"/>
      <path id="Path_13" data-name="Path 13" class="cls-5" d="M505.8,336.6a1.12,1.12,0,0,1,1.134-1.1,1.091,1.091,0,0,1,1.134,1.06,1.134,1.134,0,0,1-2.267.037Zm.347,3.62H507.7v11.464h-1.554Z" transform="translate(-413.324 -335.5)"/>
    </g>
  </g>
</svg>
