<svg xmlns="http://www.w3.org/2000/svg" width="17.401" height="13.672" viewBox="0 0 17.401 13.672">
  <defs>
    <style>
      .cls-1 {
        fill: #fff;
      }
    </style>
  </defs>
  <g id="Group_30" data-name="Group 30" transform="translate(-176 -269.276)">
    <path id="Path_59" data-name="Path 59" class="cls-1" d="M193.526,309.169a1.486,1.486,0,0,0,1.018-.384l-4.929-4.93-.342.245q-.554.408-.9.636a5.605,5.605,0,0,1-.918.465,2.8,2.8,0,0,1-1.069.238h-.019a2.8,2.8,0,0,1-1.069-.238,5.527,5.527,0,0,1-.918-.465q-.344-.228-.9-.636c-.1-.075-.217-.159-.341-.246l-4.931,4.931a1.487,1.487,0,0,0,1.019.384Zm0,0" transform="translate(-1.68 -26.221)"/>
    <path id="Path_60" data-name="Path 60" class="cls-1" d="M176.981,288.363a5.166,5.166,0,0,1-.981-.845v7.5l4.345-4.345q-1.3-.911-3.364-2.31Zm0,0" transform="translate(0 -13.833)"/>
    <path id="Path_61" data-name="Path 61" class="cls-1" d="M233.4,288.363q-1.984,1.342-3.372,2.312l4.344,4.344v-7.5a5.378,5.378,0,0,1-.972.845Zm0,0" transform="translate(-40.97 -13.833)"/>
    <path id="Path_62" data-name="Path 62" class="cls-1" d="M191.847,269.276H177.554a1.385,1.385,0,0,0-1.151.505,1.956,1.956,0,0,0-.4,1.262,2.269,2.269,0,0,0,.534,1.326,4.825,4.825,0,0,0,1.136,1.121q.33.232,1.991,1.384c.6.413,1.117.775,1.564,1.087.38.265.709.495.98.685l.144.1.268.193q.316.228.524.368c.14.094.308.2.505.316a2.921,2.921,0,0,0,.559.262,1.536,1.536,0,0,0,.485.088h.019a1.541,1.541,0,0,0,.486-.088,2.922,2.922,0,0,0,.558-.262c.2-.117.365-.222.505-.316s.314-.216.525-.368l.267-.193.145-.1.983-.683,3.561-2.473a4.622,4.622,0,0,0,1.185-1.194,2.568,2.568,0,0,0,.476-1.466,1.567,1.567,0,0,0-1.554-1.554Zm0,0"/>
  </g>
</svg>
