<svg xmlns="http://www.w3.org/2000/svg" width="125.951" height="111.302" viewBox="0 0 125.951 111.302">
  <path id="Path_71" data-name="Path 71" d="M649.939,238c5.373-6.026,10.626-11.831,15.768-17.732,2.651-3.046,5.156-6.222,7.63-9.411,1.165-1.5,3.452-3.4,1.038-5.075-2.151-1.493-3.9,1-4.73,2.581-2.807,5.3-7.363,9.135-10.908,13.8-7.284,9.592-17.026,16.648-25.807,24.693-1.175,1.075-3.17,1.825-2.461,3.954.608,1.831,2.481,2.031,4.054,2.629,7.914,3,16.348,1.636,24.458,2.985,4.141.689,8.212,1.929,12.477,1.725,2.2-.1,5.016-.08,5.166-2.772.167-3.02-2.729-2.105-4.619-2.277-10.041-.9-20.087-1.779-30.115-2.792-1.308-.133-3.672.263-3.461-1.9.182-1.875,2.075-1.6,3.684-1.377a9.719,9.719,0,0,0,7.565-2.046c6.5-6.157,15.277-7.517,22.97-9.907,11.586-3.6,23.9-3.9,36.1.978,11.79,4.71,21.167,12.105,29.839,20.928,1.59,1.618,3.739,5.168,5.97,3.018,2.314-2.231-1.184-4.793-2.833-6.018-7.71-5.727-13.68-13.174-22.568-18.029-14.145-7.725-28.534-7.738-43.48-6.83-7.63.463-13.691,5.407-20.641,7.862C653.511,237.52,652.2,238.809,649.939,238Z" transform="matrix(0.819, -0.574, 0.574, 0.819, -634.098, 259.309)" fill="#316e7a" fill-rule="evenodd"/>
</svg>
