<svg xmlns="http://www.w3.org/2000/svg" width="126.203" height="69.08" viewBox="0 0 126.203 69.08">
  <path id="Path_70" data-name="Path 70" d="M165.667,590.507a71.139,71.139,0,0,1-18.523-1.78,51.316,51.316,0,0,1-13.684-5.319c-4.834-2.754-9-5.92-11.727-10.028A16.881,16.881,0,0,1,118.964,562c.624-6.035,3.487-11.422,8.2-16.4a78.711,78.711,0,0,1,8.56-8.269A62.224,62.224,0,0,1,163.415,524.3c3.7-.756,7.6-.954,11.383-1.477,3.91-.541,7.816-.907,11.763-1.165,3.64-.237,7.269-.122,10.9-.074a75.071,75.071,0,0,1,11.779,1.036c4.388.762,8.9,1.282,13.007,2.973,2.017.83,4.207,1.491,6.12,2.47,4.241,2.169,7.955,4.726,10.56,8.114,2.372,3.082,4.729,6.2,5.54,9.716,1.28,5.565.656,10.988-3.407,15.955-.9,1.105-1.516,2.312-2.533,3.391-2.958,3.142-6.8,5.6-10.49,8.221-3.715,2.635-8.191,4.289-12.388,6.337-6.886,3.364-14.664,4.921-22.269,6.859-3.569.909-7.2,1.733-10.886,2.323-2.439.391-4.955.545-7.406.984A38.468,38.468,0,0,1,165.667,590.507ZM234.2,567.673a5.454,5.454,0,0,0,2.207-1.757c1.216-1.643,2.647-3.185,3.869-4.833a16.733,16.733,0,0,0,3.043-13.558c-1.13-6.21-4.938-11.5-11.047-15.871-4.667-3.34-10.344-5.285-16.337-6.78a96.128,96.128,0,0,0-17.468-2.217c-4.8-.292-9.608.1-14.41.252-1.347.042-2.55.3-.933,1.928a23.079,23.079,0,0,0-11.957-.26,100.007,100.007,0,0,0-23.184,7.891c-5.5,2.654-10.759,5.6-14.963,9.386-5.312,4.779-9.187,10.058-10.333,16.409-.815,4.524.662,8.587,3.295,12.429,3.011,4.393,7.765,7.729,13.484,10.2a70.622,70.622,0,0,0,14.765,4.348,104.94,104.94,0,0,0,16.5,1.739,115.018,115.018,0,0,0,15.612-.546,75.278,75.278,0,0,0,14.724-3,132.939,132.939,0,0,0,15.77-5.874c5.941-2.733,11.588-5.68,15.588-10.016,3.387-3.669,4.725-7.722,2.893-12.121-2.045-4.906-6.335-8.574-11.416-11.923-5.019-3.309-11.124-4.9-17.141-6.619a54.411,54.411,0,0,0-14-2.315c-.507-.009-1.472.113-1.337-.564.122-.609.937-.31,1.5-.309,4.732.009,9.209,1.062,13.672,2.007a62.006,62.006,0,0,1,14.32,4.935c7.34,3.567,13.051,8.1,15.6,14.461,1.063,2.658,1.581,5.448.028,8.184C235.777,564.627,235.085,566.006,234.2,567.673ZM179.88,588.154c-.008-.117-.015-.233-.024-.349-1.607,0-3.219-.051-4.824.008a110.538,110.538,0,0,1-23.481-2.047,79.14,79.14,0,0,1-8.727-2.5c-6.922-2.053-12.453-5.433-16.467-10.051-2.5-2.882-4.585-5.993-5.025-9.537a25.076,25.076,0,0,0-.606-2.526c-.819,1.3-.326,2.278-.329,3.231-.019,4.777,2.309,9.028,6.233,12.622a43.583,43.583,0,0,0,16.892,9.407,76.9,76.9,0,0,0,21.8,3.127C170.344,589.6,175.045,588.679,179.88,588.154Z" transform="translate(-118.862 -521.515)" fill="#26b7c0" fill-rule="evenodd"/>
</svg>
