<svg xmlns="http://www.w3.org/2000/svg" width="16.54" height="16.54" viewBox="0 0 16.54 16.54">
  <defs>
    <style>
      .cls-1 {
        fill: #fff;
      }
    </style>
  </defs>
  <g id="Group_29" data-name="Group 29" transform="translate(-808.078 -5948.381)">
    <g id="Group_24" data-name="Group 24" transform="translate(9.086)">
      <path id="Path_55" data-name="Path 55" class="cls-1" d="M15.044,0H1.5A1.5,1.5,0,0,0,0,1.5V15.044a1.5,1.5,0,0,0,1.5,1.5H15.044a1.5,1.5,0,0,0,1.5-1.5V1.5A1.5,1.5,0,0,0,15.044,0ZM5.118,14.282a.435.435,0,0,1-.435.435H2.829a.435.435,0,0,1-.435-.435V6.512a.435.435,0,0,1,.435-.435H4.683a.435.435,0,0,1,.435.435ZM3.756,5.345A1.761,1.761,0,1,1,5.517,3.584,1.761,1.761,0,0,1,3.756,5.345ZM14.8,14.317a.4.4,0,0,1-.4.4H12.415a.4.4,0,0,1-.4-.4V10.673c0-.544.159-2.382-1.421-2.382-1.226,0-1.474,1.259-1.524,1.823v4.2a.4.4,0,0,1-.4.4H6.746a.4.4,0,0,1-.4-.4V6.477a.4.4,0,0,1,.4-.4H8.669a.4.4,0,0,1,.4.4v.678a2.73,2.73,0,0,1,2.568-1.209c3.185,0,3.167,2.975,3.167,4.61Z" transform="translate(798.993 5948.381)"/>
    </g>
  </g>
</svg>
