<svg xmlns="http://www.w3.org/2000/svg" width="146.317" height="92.573" viewBox="0 0 146.317 92.573">
  <path id="Path_68" data-name="Path 68" d="M246.631,362.194c6.5-7.494,8.876-20.072,1.783-28.268-2.751-3.178-5.714-6.436-9.93-7.971-.84-.306-1.168-1.525-2.344-1.393-.248.028-.459-.389-.323-.691a.727.727,0,0,1,1.129-.267c2.14,1.52,4.869,1.974,6.83,3.814,1.117,1.047,2.287,2.035,3.434,3.051,5.99,5.313,8.659,14.411,6.063,21.955-1,2.906-1.539,6.061-3.6,8.384-4.027,4.546-5.246,10.577-8.543,15.457a68.028,68.028,0,0,1-14.479,15.382c-6.065,4.785-12.99,7.879-19.785,11.185-4.619,2.247-9.726,3.555-14.7,5a111.14,111.14,0,0,1-16.529,2.94,97.738,97.738,0,0,1-17.653.971,117.309,117.309,0,0,1-12.639-1.07c-6.18-.983-12.114-2.765-17.379-6.3-2.293-1.542-5.01-1.992-7.5-3a20.973,20.973,0,0,1-11.138-10.391,15.051,15.051,0,0,1-1.3-8.164c.654-6.907,3.553-12.979,7.166-18.861a78,78,0,0,1,17.233-19.121,93.566,93.566,0,0,1,17.939-12.076,117.8,117.8,0,0,1,24.909-9.386,85.2,85.2,0,0,1,18.648-2.714c1.85-.023,4.3.774,5.862-1.315a.62.62,0,0,1,.558-.031c1.209,2.1,3.4,1.066,5.089,1.6.635.2,1.487.267,1.37,1.1-.136.952-.966.551-1.6.5a81.735,81.735,0,0,0-25.238,1.443,137.065,137.065,0,0,0-23.644,7.907,86.908,86.908,0,0,0-17.209,10.331c-6.919,5.1-13.411,10.668-18.673,17.48-4.537,5.877-8.186,12.274-9.871,19.644-1.955,8.546,1.962,16.35,9.135,19.551.979.438,1.878,1.059,2.94,1.467-.941-1.813-2.213-3.354-3.009-5.226-2.772-6.528-2.41-12.93.217-19.393,1.736-4.269,3.316-8.63,6.009-12.387,3.561-4.97,7.3-9.757,12.1-13.737a141.85,141.85,0,0,1,11.219-8.74,71.339,71.339,0,0,1,15.686-8.115c.462-.165,1.124-.506,1.38.074.4.907-.613.869-1.036,1.023-4.782,1.749-9.006,4.6-13.522,6.872a38.1,38.1,0,0,0-6.858,4.977c-4.1,3.4-8.416,6.663-11.751,10.794-6.891,8.532-13.037,17.539-13.544,29.1-.3,6.681,2.495,11.957,7.68,15.9,1.929,1.467,4.6,1.439,6.979,1.582a105.837,105.837,0,0,0,25.977-1.64,211.96,211.96,0,0,0,24.145-5.937c5.416-1.7,10.979-3,16.221-5.18,6.771-2.816,13.787-5.083,20.162-8.833,2.951-1.735,6.1-3.131,9.063-4.851a80.963,80.963,0,0,0,12.671-9.34,8.628,8.628,0,0,0,2.612-6.332,36.063,36.063,0,0,0-2.327-14.857c-2.488-6.481-7.41-10.853-12.889-14.785-6.065-4.351-12.944-6.56-20.109-8.121a4.509,4.509,0,0,1-.855-.191c-.5-.217-1.328-.226-1.153-1.039.168-.788.91-.6,1.465-.5,1.222.22,2.437.477,3.645.757a58.43,58.43,0,0,1,11.6,3.932,43.271,43.271,0,0,1,15.846,12.4,29.352,29.352,0,0,1,6.363,18.557C246.636,358.607,246.631,360.132,246.631,362.194Zm-4.119,7.255c-2.478,1.906-4.855,3.965-7.458,5.68-4.09,2.692-8.507,4.831-12.814,7.161-7.663,4.147-15.78,7.187-23.825,10.409-5.5,2.206-11.273,3.6-16.96,5.245-5.388,1.561-10.7,3.443-16.289,4.161-5.209.669-10.291,2.124-15.551,2.412-4.237.231-8.48.376-12.717.6-1.045.056-2.11-.64-3.263.01a6.751,6.751,0,0,0,2.558,1.433,31.591,31.591,0,0,0,9.326,2.312,106.5,106.5,0,0,0,13.031,1.423,124.449,124.449,0,0,0,22.84-1.946,90.281,90.281,0,0,0,12.83-2.75,97.089,97.089,0,0,0,16.465-6.53c4.947-2.65,9.973-5.026,14.5-8.485a68.511,68.511,0,0,0,13.429-13.423A23.585,23.585,0,0,0,242.512,369.449Z" transform="translate(-107.946 -319.252)" fill="#316e7a" fill-rule="evenodd"/>
</svg>
