<svg xmlns="http://www.w3.org/2000/svg" width="483.328" height="6.948" viewBox="0 0 483.328 6.948">
  <path id="Path_67" data-name="Path 67" d="M518.109,525.1q8.864-.063,17.726-.111c6.118-.029,12.234-.06,18.349-.133,6.369-.076,12.739-.157,19.1-.306q10.178-.24,20.359-.529c5.312-.155,10.747-.38,14.53-1.719.337-.119.661-.242.984-.365-5.3.043-10.557.233-15.844.355-6.305.146-12.592.359-18.893.517-6.421.162-12.846.166-19.281.165q-9.791,0-19.58.021-9.812.008-19.626.022-11.329.014-22.656.019-11.5.006-23,0-11.472,0-22.943-.021-11.512-.018-23.021-.053t-22.986-.095c-.873,0-1.748-.023-2.62-.014-21.423.24-85.995-1.031-124.219-1.586-44.712-.274-90.243-1.451-132.493-.295-3.927,0-8.458.24-11.644.481-2.512.19-4.919.58-4.462.835a77.863,77.863,0,0,0,8.518.407c14.646.1,29.39.121,44.046.218,52.114.347,104.345.611,156.265,1.1,51.463.488-4.722-.256,46.227.524,38.922.6,76.42,1.033,115.056,1.779,21.8.42,43.907.727,65.931,1.056,4.249.063,9.307.072,12.871-.044,4.722-.247,8.267-.3,11.956-.736-4.13-.225-8.02-.6-12.433-.648q-10.737-.128-21.476-.216-10.768-.092-21.539-.172c-3.746-.029-6.711.016-9.977-.153A26.562,26.562,0,0,1,518.109,525.1Z" transform="translate(-125.826 -520.474)" fill="#316e7a" fill-rule="evenodd"/>
</svg>
