<svg xmlns="http://www.w3.org/2000/svg" width="141.556" height="102.334" viewBox="0 0 141.556 102.334">
  <path id="Path_69" data-name="Path 69" d="M948.887,305.424c-3.415.363-6.965.908-9.866,2.385-4.293,2.189-8.992,3.041-13.509,4.455-4.488,1.407-8.6,3.65-13.258,4.7a3.934,3.934,0,0,0-3.181,2.7c-.249.962-1.2,1.507-2.383.7a2.458,2.458,0,0,0-2.4-.307c-5.257,2.1-10.658,3.958-15.721,6.391-3.818,1.833-7.979,2.839-11.756,4.686-2.388,1.167-4.7,2.607-7.245,3.332-4.075,1.158-7.59,3.174-11.257,5.007-4.073,2.035-8.334,3.759-12.386,5.823a106.739,106.739,0,0,0-13.007,7.587c-1.945,1.369-4.638,3.034-7.738,2.7-.426-.046-.995.5-1.256-.168-.2-.532.312-.876.749-1.082,5.652-2.646,10.87-5.95,16.458-8.717,7.436-3.681,14.985-7.166,22.468-10.754,3.767-1.8,7.832-3.266,11.664-5.015,5.547-2.535,11.3-4.6,16.959-6.872,7.339-2.948,14.479-6.331,22.061-8.741,11.6-3.688,22.714-8.572,34.58-11.6a11.211,11.211,0,0,1,4.515-.473,1.642,1.642,0,0,1,1.536,1.346c.151.848-.479,1.273-1.237,1.533A14.3,14.3,0,0,1,948.887,305.424Z" transform="matrix(0.914, 0.407, -0.407, 0.914, -607.951, -611.072)" fill="#316e7a" fill-rule="evenodd"/>
</svg>
