<svg xmlns="http://www.w3.org/2000/svg" width="17.668" height="17.668" viewBox="0 0 17.668 17.668">
  <g id="Group_38" data-name="Group 38" transform="translate(-604 -477)">
    <path id="Path_67" data-name="Path 67" d="M620.93,487.113a8.2,8.2,0,0,0-8.1-9.476,8.274,8.274,0,0,0-1.28.1,4.955,4.955,0,0,0-6.817,6.818,8.385,8.385,0,0,0-.1,1.279,8.2,8.2,0,0,0,9.475,8.1,4.954,4.954,0,0,0,6.817-6.818Zm-4.2,2.449a3.394,3.394,0,0,1-1.522,1.169,6.047,6.047,0,0,1-2.365.422,5.644,5.644,0,0,1-2.707-.577,3.494,3.494,0,0,1-1.233-1.108,2.4,2.4,0,0,1-.477-1.357.9.9,0,0,1,.292-.671,1.041,1.041,0,0,1,.744-.279.926.926,0,0,1,.622.219,1.644,1.644,0,0,1,.426.634,3.982,3.982,0,0,0,.451.807,1.777,1.777,0,0,0,.674.529,2.66,2.66,0,0,0,1.148.208,2.737,2.737,0,0,0,1.589-.421,1.225,1.225,0,0,0,.6-1.04,1.042,1.042,0,0,0-.321-.8,2.131,2.131,0,0,0-.85-.476q-.526-.168-1.413-.355a10.982,10.982,0,0,1-1.994-.606,3.223,3.223,0,0,1-1.284-.951,2.361,2.361,0,0,1-.476-1.5,2.456,2.456,0,0,1,.5-1.519,3.139,3.139,0,0,1,1.452-1.02,6.311,6.311,0,0,1,2.222-.355,5.89,5.89,0,0,1,1.765.235,3.872,3.872,0,0,1,1.24.626,2.674,2.674,0,0,1,.724.824,1.8,1.8,0,0,1,.23.846.983.983,0,0,1-.292.692.966.966,0,0,1-.729.307.88.88,0,0,1-.607-.187,2.423,2.423,0,0,1-.44-.593,2.644,2.644,0,0,0-.711-.89,2.193,2.193,0,0,0-1.33-.316,2.449,2.449,0,0,0-1.372.345.975.975,0,0,0-.514.816.783.783,0,0,0,.172.506,1.466,1.466,0,0,0,.485.374,3.423,3.423,0,0,0,.631.248c.215.06.571.148,1.066.265q.93.2,1.69.447a5.336,5.336,0,0,1,1.292.6,2.523,2.523,0,0,1,.84.9,2.687,2.687,0,0,1,.3,1.323,2.878,2.878,0,0,1-.52,1.688Zm0,0" fill="#fff"/>
  </g>
</svg>
