<svg xmlns="http://www.w3.org/2000/svg" width="17.539" height="17.539" viewBox="0 0 17.539 17.539">
  <defs>
    <style>
      .cls-1 {
        fill: #fff;
      }
    </style>
  </defs>
  <g id="Group_28" data-name="Group 28" transform="translate(-20 -105.788)">
    <path id="Path_56" data-name="Path 56" class="cls-1" d="M23.287,153.12a17.368,17.368,0,0,0,5.752,4.5,8.32,8.32,0,0,0,3.186.927,2.335,2.335,0,0,0,2-.763c.372-.416.792-.8,1.186-1.193a1.242,1.242,0,0,0,.007-1.891q-1.04-1.046-2.088-2.084a1.229,1.229,0,0,0-1.858,0c-.434.431-.869.861-1.3,1.3a.256.256,0,0,1-.358.066c-.281-.153-.58-.277-.85-.445a13.466,13.466,0,0,1-3.248-2.956,7.7,7.7,0,0,1-1.164-1.865.267.267,0,0,1,.066-.343c.434-.42.858-.85,1.285-1.281a1.234,1.234,0,0,0,0-1.9c-.339-.343-.679-.679-1.018-1.022s-.7-.7-1.051-1.051a1.237,1.237,0,0,0-1.858,0c-.438.431-.858.872-1.3,1.3a2.115,2.115,0,0,0-.664,1.427q-.013.169-.013.335v.007a6.448,6.448,0,0,0,.48,2.261A15.809,15.809,0,0,0,23.287,153.12Z" transform="translate(0 -35.226)"/>
    <path id="Path_57" data-name="Path 57" class="cls-1" d="M214.389,105.788l-.19,1.354a8.665,8.665,0,0,1,7.332,7.106l1.347-.23a10.038,10.038,0,0,0-8.489-8.23Z" transform="translate(-185.339)"/>
    <path id="Path_58" data-name="Path 58" class="cls-1" d="M210.467,182.589l-.19,1.354a4.672,4.672,0,0,1,3.956,3.836l1.347-.23a6.046,6.046,0,0,0-5.113-4.96Z" transform="translate(-181.596 -73.297)"/>
  </g>
</svg>
