<svg xmlns="http://www.w3.org/2000/svg" width="16.921" height="16.921" viewBox="0 0 16.921 16.921">
  <defs>
    <style>
      .cls-1 {
        fill: #fff;
      }
    </style>
  </defs>
  <path id="Path_54" data-name="Path 54" class="cls-1" d="M8.463,0h0A8.455,8.455,0,0,0,1.611,13.419L.556,16.563l3.252-1.04A8.459,8.459,0,1,0,8.463,0Zm4.923,11.947a2.387,2.387,0,0,1-1.66,1.194c-.442.094-1.019.169-2.963-.637A10.6,10.6,0,0,1,4.55,8.784a4.832,4.832,0,0,1-1-2.552A2.7,2.7,0,0,1,4.41,4.173a1.229,1.229,0,0,1,.865-.3c.1,0,.2.005.283.01.249.011.373.025.537.418.2.492.7,1.706.76,1.831a.5.5,0,0,1,.036.458,1.462,1.462,0,0,1-.274.388c-.125.144-.243.254-.368.408-.114.134-.243.278-.1.527A7.51,7.51,0,0,0,7.524,9.614a6.22,6.22,0,0,0,1.984,1.224.535.535,0,0,0,.6-.094,10.237,10.237,0,0,0,.661-.876.472.472,0,0,1,.607-.184c.228.079,1.437.677,1.686.8s.412.184.473.289A2.107,2.107,0,0,1,13.386,11.947Z"/>
</svg>
